<?xml version="1.0" standalone="no"?>
<!DOCTYPE svg PUBLIC "-//W3C//DTD SVG 1.1//EN" "http://www.w3.org/Graphics/SVG/1.1/DTD/svg11.dtd" >
<svg xmlns="http://www.w3.org/2000/svg">
<metadata></metadata>
<defs>
<font id="altisbold_italic" horiz-adv-x="1280" >
<font-face units-per-em="2048" ascent="1602" descent="-446" />
<missing-glyph horiz-adv-x="491" />
<glyph unicode="&#xfb01;" horiz-adv-x="1361" d="M33 -395l178 1276h-131l16 102l137 109q-16 58 -16 108q0 119 63 208.5t161 133t214 43.5q154 0 215 -61l-41 -277q-37 82 -143 82q-62 0 -101.5 -35t-39.5 -100q0 -44 16 -66h694l-125 -815q-5 -33 5 -49t39 -16q58 0 104 65l-37 -272q-76 -66 -207 -66 q-141 0 -201.5 83t-35.5 241l90 582h-340l-178 -1276h-336zM950 1370q0 88 54 139.5t141 51.5q74 0 116 -35.5t42 -98.5q0 -86 -56 -135t-145 -49q-72 0 -112 33t-40 94z" />
<glyph unicode="&#xfb02;" horiz-adv-x="1378" d="M33 -395l178 1267h-131l14 115l139 111q-18 65 -18 108q0 90 36.5 164t97.5 120t135.5 70.5t154.5 24.5q157 0 219 -67l-39 -273q-37 82 -139 82q-58 0 -96.5 -35t-38.5 -98q0 -38 14 -66h189l-35 -256h-168l-176 -1267h-336zM795 283l178 1267h336l-172 -1224 q-6 -47 8 -67.5t51 -20.5q62 0 104 49l-34 -258q-28 -24 -82.5 -43t-126.5 -19q-152 0 -218 80.5t-44 235.5z" />
<glyph unicode="&#xfb03;" horiz-adv-x="2037" d="M35 -395l176 1276h-131l16 106l140 111q-19 55 -19 108q0 90 36.5 164t97 120t135 70.5t153.5 24.5q159 0 221 -67l-39 -273q-37 82 -139 82q-60 0 -98.5 -34.5t-38.5 -98.5q0 -34 16 -66h348q-8 40 -8 76q0 91 36 165t97 120.5t136.5 71t158.5 24.5q154 0 215 -61 l-39 -277q-40 82 -145 82q-62 0 -101.5 -35t-39.5 -100q0 -38 16 -66h694l-123 -815q-5 -34 4 -49.5t39 -15.5q57 0 103 65l-37 -272q-76 -66 -207 -66q-141 0 -202 83t-36 241l91 582h-340l-179 -1276h-333l176 1276h-338l-178 -1276h-334zM1624 1370q0 88 54 139.5 t143 51.5q72 0 113.5 -35.5t41.5 -98.5q0 -86 -56 -135t-144 -49q-72 0 -112 33t-40 94z" />
<glyph unicode="&#xfb04;" horiz-adv-x="2054" d="M35 -395l176 1276h-131l16 106l140 111q-19 55 -19 108q0 90 36.5 164t97 120t135 70.5t153.5 24.5q159 0 221 -67l-39 -273q-37 82 -139 82q-60 0 -98.5 -34.5t-38.5 -98.5q0 -34 16 -66h348q-8 40 -8 76q0 91 36.5 165t96.5 120.5t134.5 71t154.5 24.5q142 0 215 -59 l-41 -281q-37 82 -137 82q-63 0 -99 -34t-36 -99q0 -40 16 -66h182l-37 -247h-165l-179 -1276h-333l176 1276h-338l-178 -1276h-334zM1470 283l179 1267h336l-173 -1224q-6 -47 8.5 -67.5t51.5 -20.5q62 0 104 49l-34 -258q-76 -62 -211 -62q-150 0 -216.5 81t-44.5 235z " />
<glyph horiz-adv-x="2048" />
<glyph horiz-adv-x="2048" />
<glyph unicode="&#xd;" horiz-adv-x="2048" />
<glyph unicode=" "  horiz-adv-x="491" />
<glyph unicode="&#x09;" horiz-adv-x="491" />
<glyph unicode="&#xa0;" horiz-adv-x="491" />
<glyph unicode="!" horiz-adv-x="593" d="M39 115q0 93 61.5 152t153.5 59q76 0 122 -40.5t46 -109.5q0 -92 -63 -150.5t-154 -58.5q-77 0 -121.5 39.5t-44.5 108.5zM125 424l96 979h369l-180 -979h-285z" />
<glyph unicode="&#x22;" horiz-adv-x="874" d="M172 1354l6 53q8 68 62 114t127 46q71 0 112 -46t33 -114l-6 -53l-160 -412h-129zM565 1354l6 53q8 68 63 114t128 46q72 0 114 -46t31 -114l-8 -53l-158 -412h-129z" />
<glyph unicode="#" horiz-adv-x="1437" d="M27 403l51 160h293l102 314h-295l51 159h295l129 396h185l-129 -396h247l129 396h187l-129 -396h293l-54 -159h-290l-103 -314h295l-53 -160h-293l-131 -403h-186l131 403h-248l-131 -403h-185l131 403h-292zM555 563h248l102 314h-248z" />
<glyph unicode="$" horiz-adv-x="1120" d="M20 162l43 301q43 -57 141 -96t230 -39q134 0 196 25t62 91q0 41 -31.5 59t-99.5 32l-151 34q-70 16 -119 36t-90 52t-61.5 80t-20.5 113q0 158 94.5 262.5t269.5 144.5l27 189h135l-22 -168q54 4 84 4h10l24 164h133l-24 -172q154 -21 244 -82l-43 -299 q-42 57 -141.5 94t-235.5 37q-118 0 -170.5 -20.5t-52.5 -81.5q0 -37 27.5 -55t88.5 -31l152 -31q75 -15 128 -34.5t97.5 -51t67 -80.5t22.5 -115q0 -148 -90 -256t-258 -157l-29 -207h-133l25 178q-32 -4 -96 -8l-23 -170h-137l24 172q-199 12 -297 86z" />
<glyph unicode="%" horiz-adv-x="1609" d="M119 944q0 108 23.5 194t62 141t91.5 91t108 51t116 15q105 0 178 -43q71 -40 129 -57t150 -17q190 0 307 117l135 -88l-1042 -1348h-209l911 1171q-61 -22 -133 -22q-80 0 -139 20q4 -28 4 -49q0 -101 -23.5 -182.5t-62.5 -134t-91.5 -88.5t-107.5 -51t-114 -15 q-135 0 -214 69.5t-79 225.5zM356 965q0 -59 19.5 -86t62.5 -27q64 0 99.5 72.5t35.5 195.5q0 59 -19.5 87t-61.5 28q-64 0 -100 -73.5t-36 -196.5zM823 260q0 109 23.5 195t62 141t91 91.5t108.5 51.5t117 15q135 0 213 -70t78 -227q0 -109 -23.5 -195t-62 -140t-92 -90 t-108.5 -50.5t-116 -14.5q-64 0 -114.5 15t-91.5 48t-63 91.5t-22 138.5zM1061 281q0 -58 20 -84.5t64 -26.5q61 0 97 72.5t36 195.5q0 58 -19 85.5t-63 27.5q-62 0 -98.5 -73.5t-36.5 -196.5z" />
<glyph unicode="&#x26;" horiz-adv-x="1644" d="M25 360q0 166 94 286.5t233 174.5q-94 91 -94 213q0 127 73.5 219.5t192.5 137.5t267 45q120 0 203 -34.5t106 -72.5l-43 -307q-35 51 -108 90t-161 39q-188 0 -188 -121q0 -36 17.5 -64.5t58.5 -66.5l141 -133l-12 -92h-268q-64 -35 -106 -93t-42 -135q0 -186 305 -186 q221 0 341 94t120 287q0 23 -4 33h-141l41 289h612l-41 -289h-143q4 -24 4 -41q-2 -129 -47.5 -238.5t-125 -187.5t-186.5 -132.5t-231.5 -81t-261.5 -26.5q-606 0 -606 393z" />
<glyph unicode="'" horiz-adv-x="479" d="M172 1354l6 53q8 68 62 114t127 46q71 0 112 -46t33 -114l-6 -53l-160 -412h-129z" />
<glyph unicode="(" horiz-adv-x="765" d="M51 459q0 202 72 404.5t199 361.5t282 237h287q-115 -60 -214.5 -157.5t-175.5 -225t-119.5 -290t-43.5 -338.5q0 -236 86 -418t225 -281h-284q-145 85 -229.5 278t-84.5 429z" />
<glyph unicode=")" horiz-adv-x="765" d="M-127 -248q111 62 209 161.5t175 228.5t122 294t45 342q0 234 -85 412t-228 270h284q145 -84 229.5 -273t84.5 -423q0 -203 -72.5 -408t-199.5 -365.5t-281 -238.5h-283z" />
<glyph unicode="*" horiz-adv-x="915" d="M135 1067l211 117l-180 106l143 183l150 -117l14 194h219l-35 -194l183 117l90 -177l-211 -114l176 -115l-139 -180l-150 117l-14 -193h-221l35 195l-181 -121z" />
<glyph unicode="+" horiz-adv-x="1107" d="M61 606l41 283h338l47 338h299l-47 -338h340l-39 -283h-342l-47 -340h-299l49 340h-340z" />
<glyph unicode="," horiz-adv-x="563" d="M-49 -301q105 161 145 293q-38 22 -59 60.5t-21 86.5q0 101 68.5 169.5t165.5 68.5q77 0 123.5 -47.5t46.5 -128.5q0 -59 -23.5 -126.5t-59 -126.5t-79.5 -115t-83.5 -96t-72.5 -65z" />
<glyph unicode="-" horiz-adv-x="776" d="M90 496l39 276h555l-37 -276h-557z" />
<glyph unicode="." horiz-adv-x="559" d="M16 137q0 99 68 169.5t162 70.5q78 0 127 -49.5t49 -124.5q0 -98 -69 -167t-165 -69q-78 0 -125 47.5t-47 122.5z" />
<glyph unicode="/" horiz-adv-x="1355" d="M-70 -164l1270 1751h254l-1272 -1751h-252z" />
<glyph unicode="0" horiz-adv-x="1574" d="M72 555q0 165 46 308t125.5 246.5t185 178t226 111.5t246.5 37q297 0 460 -150.5t163 -431.5q0 -164 -45.5 -307.5t-124.5 -248.5t-184 -180.5t-226.5 -113t-249.5 -37.5q-295 0 -458.5 153.5t-163.5 434.5zM426 600q0 -165 84 -254.5t227 -89.5q87 0 164.5 36.5 t137.5 104.5t95 175t35 239q0 164 -82 251t-225 87q-87 0 -164.5 -35t-138.5 -101.5t-97 -173.5t-36 -239z" />
<glyph unicode="1" horiz-adv-x="800" d="M78 934l41 285q300 0 475 184h178l-194 -1403h-330l139 995q-80 -61 -309 -61z" />
<glyph unicode="2" horiz-adv-x="1073" d="M4 0l10 86l475 518q96 104 149.5 194.5t53.5 186.5q0 164 -196 164q-97 0 -199 -46t-178 -114l45 305q64 58 176 100t254 42q221 0 328.5 -92t107.5 -263q0 -79 -23.5 -159t-54 -138.5t-86.5 -131.5t-92.5 -112.5t-101.5 -107.5l-131 -137h401l-41 -295h-897z" />
<glyph unicode="3" horiz-adv-x="1097" d="M14 37l41 311q95 -102 275 -102q313 0 313 229q0 69 -52 103t-175 34h-107l8 66l322 438h-485l39 287h907l-8 -68l-363 -489q277 -55 277 -309q0 -84 -25 -164t-79.5 -154t-132.5 -129.5t-192 -89t-251 -33.5q-208 0 -312 70z" />
<glyph unicode="4" horiz-adv-x="1214" d="M-29 270l11 68l550 1065h322l-426 -846h272l107 483h274l-67 -483h143l-39 -287h-143l-37 -270h-320l37 270h-684z" />
<glyph unicode="5" horiz-adv-x="1097" d="M2 33l41 305q125 -92 303 -92q147 0 221 53.5t74 151.5q0 66 -56 98.5t-188 32.5q-158 0 -278 -45l155 866h811l-38 -287h-523l-43 -266q24 8 92 8q217 0 324 -78.5t107 -242.5q0 -170 -85.5 -300t-238 -200t-348.5 -70q-221 0 -330 66z" />
<glyph unicode="6" horiz-adv-x="1200" d="M51 416q0 206 87 404t232 347.5t324 235.5h441l-5 -17q-399 -168 -575 -458q76 45 193 45q182 0 284.5 -97.5t102.5 -281.5q0 -178 -79 -321t-222 -224.5t-324 -81.5q-219 0 -339 118t-120 331zM397 432q0 -86 41.5 -133t120.5 -47q100 0 163.5 78t63.5 202 q0 80 -41.5 126.5t-121.5 46.5q-121 0 -195 -78q-31 -98 -31 -195z" />
<glyph unicode="7" horiz-adv-x="1005" d="M96 0l563 1116h-559l39 287h967l-10 -68l-656 -1335h-344z" />
<glyph unicode="8" horiz-adv-x="1216" d="M37 311q0 147 75.5 248.5t194.5 149.5q-65 38 -105 105t-40 157q0 214 159.5 339.5t413.5 125.5q212 0 324 -87.5t112 -248.5q0 -141 -65.5 -236.5t-169.5 -148.5q78 -30 125 -101.5t47 -171.5q0 -207 -162 -341t-444 -134q-235 0 -350 92t-115 252zM387 381 q0 -63 42 -99t126 -36q104 0 161.5 53t57.5 141q0 133 -174 133q-102 0 -157.5 -52t-55.5 -140zM489 967q0 -60 38.5 -92.5t109.5 -32.5q89 0 144 50t55 136q0 62 -40.5 96.5t-113.5 34.5q-88 0 -140.5 -51.5t-52.5 -140.5z" />
<glyph unicode="9" horiz-adv-x="1202" d="M86 811q0 133 47 249.5t129.5 199.5t198.5 130.5t250 47.5q219 0 339.5 -118.5t120.5 -330.5q0 -203 -83 -400.5t-225 -350.5t-318 -238h-455v18q188 79 334.5 187.5t243.5 267.5q-84 -43 -193 -43q-182 0 -285.5 98.5t-103.5 282.5zM436 870q0 -80 42 -125t122 -45 q124 0 195 78q30 95 30 195q0 84 -41.5 131t-119.5 47q-100 0 -164 -78t-64 -203z" />
<glyph unicode=":" horiz-adv-x="600" d="M41 131q0 98 66 166t157 68q76 0 124 -47.5t48 -120.5q0 -96 -67 -164t-160 -68q-76 0 -122 46.5t-46 119.5zM145 879q0 97 66 165t158 68q76 0 124 -47.5t48 -120.5q0 -96 -67.5 -163.5t-160.5 -67.5q-76 0 -122 46.5t-46 119.5z" />
<glyph unicode=";" horiz-adv-x="606" d="M-29 -295q104 162 142 285q-78 44 -78 143t66 165.5t161 66.5q75 0 120.5 -46t45.5 -124q0 -71 -34 -154t-84.5 -153t-100 -124t-90.5 -86zM158 879q0 97 65.5 165t157.5 68q76 0 124 -47.5t48 -120.5q0 -96 -67 -163.5t-160 -67.5q-76 0 -122 46.5t-46 119.5z" />
<glyph unicode="&#x3c;" horiz-adv-x="1161" d="M63 721l3 14l1062 611l-43 -322l-522 -303l436 -303l-43 -305z" />
<glyph unicode="=" horiz-adv-x="1155" d="M80 379l39 268h921l-39 -268h-921zM145 840l39 270h922l-37 -270h-924z" />
<glyph unicode="&#x3e;" horiz-adv-x="1163" d="M61 113l43 305l521 303l-437 303l45 322l893 -611l-2 -14z" />
<glyph unicode="?" horiz-adv-x="976" d="M119 973l45 323q53 58 166 99t250 41q193 0 298 -75.5t105 -221.5q0 -36 -6 -71t-13 -62.5t-24 -59t-28 -51t-37 -49.5t-38.5 -44t-45 -43.5t-44 -39.5t-47.5 -41q-63 -55 -90 -108.5t-35 -127.5l-2 -18h-317l2 16q14 126 63.5 210.5t147.5 168.5q55 48 80 73t45 62.5 t20 79.5q0 109 -159 109q-93 0 -188 -48.5t-148 -121.5zM184 115q0 93 60.5 152t152.5 59q76 0 122 -41t46 -111q0 -91 -62.5 -149t-154.5 -58q-75 0 -119.5 39.5t-44.5 108.5z" />
<glyph unicode="@" horiz-adv-x="1900" d="M57 467q0 188 53 347t147 272t222 192t277.5 117.5t314.5 38.5q171 0 313 -43t246 -124.5t161.5 -207.5t57.5 -285q0 -198 -61.5 -358t-176.5 -253t-261 -93q-107 0 -180.5 51.5t-82.5 142.5q-16 -58 -89 -103.5t-169 -45.5q-141 0 -225 98.5t-84 280.5 q0 256 123.5 408.5t310.5 152.5q139 0 193 -99l29 72h215l-91 -649q-15 -127 91 -127q29 0 61 15t67 52.5t62.5 92.5t45.5 145t18 201q0 166 -76.5 279.5t-208 166.5t-311.5 53q-130 0 -244.5 -28t-213.5 -88.5t-169.5 -149.5t-111 -217.5t-40.5 -286.5q0 -273 162.5 -435.5 t427.5 -162.5q239 0 397 76l-28 -192q-154 -66 -398 -66q-224 0 -400 94t-275 267.5t-99 398.5zM795 506q0 -182 116 -182q96 0 131 102l52 365q-27 59 -103 59q-52 0 -91 -27.5t-61.5 -76.5t-33 -109t-10.5 -131z" />
<glyph unicode="A" horiz-adv-x="1378" d="M-82 0l686 1260l-31 143h353l366 -1403h-356l-62 254h-497l-129 -254h-330zM500 496h317l-76 319l-20 119l-57 -119z" />
<glyph unicode="B" horiz-adv-x="1271" d="M47 0l197 1403h475q269 0 394.5 -74.5t125.5 -222.5q0 -85 -25 -153t-70 -112.5t-98.5 -72.5t-117.5 -43v-2q112 -21 175.5 -79t63.5 -175q0 -104 -36 -187.5t-110.5 -147.5t-199 -99t-291.5 -35h-483zM428 268h158q129 0 187 48.5t58 142.5q0 62 -47 93.5t-153 31.5 h-160zM508 842h147q126 0 182 46t56 134q0 59 -47 86t-150 27h-147z" />
<glyph unicode="C" horiz-adv-x="1241" d="M72 539q0 173 43 320t118 252t176 179t216 110t239 36q269 0 389 -115l-47 -348q-93 170 -338 170q-199 0 -320.5 -142.5t-121.5 -398.5q0 -162 81.5 -251t237.5 -89q243 0 383 156l-45 -318q-66 -60 -176.5 -96.5t-240.5 -36.5q-286 0 -440 144.5t-154 427.5z" />
<glyph unicode="D" horiz-adv-x="1421" d="M47 0l197 1403h452q163 0 284.5 -29t210 -91.5t133 -166t44.5 -248.5q0 -187 -47.5 -336.5t-128 -247.5t-192.5 -163t-236 -93t-264 -28h-453zM430 285h109q250 0 362.5 131.5t112.5 404.5q0 155 -83.5 226t-275.5 71h-108z" />
<glyph unicode="E" horiz-adv-x="1169" d="M47 0l197 1403h954l-41 -283h-608l-39 -266h397l-35 -268h-399l-43 -303h608l-37 -283h-954z" />
<glyph unicode="F" horiz-adv-x="1112" d="M47 0l197 1403h930l-39 -283h-586l-41 -280h377l-37 -265h-377l-80 -575h-344z" />
<glyph unicode="G" horiz-adv-x="1347" d="M70 541q0 173 44.5 320t122.5 251.5t182.5 178.5t225 109.5t250.5 35.5q167 0 276.5 -40t165.5 -98l-49 -350q-50 90 -149.5 142.5t-243.5 52.5q-219 0 -345 -144.5t-126 -408.5q0 -163 75.5 -255.5t211.5 -92.5q105 0 157 24l56 387h321l-78 -555q-88 -58 -217 -94.5 t-288 -36.5q-279 0 -435.5 146t-156.5 428z" />
<glyph unicode="H" horiz-adv-x="1466" d="M47 0l197 1403h344l-76 -537h508l76 537h344l-197 -1403h-342l80 573h-508l-82 -573h-344z" />
<glyph unicode="I" horiz-adv-x="614" d="M47 0l197 1403h344l-197 -1403h-344z" />
<glyph unicode="J" horiz-adv-x="946" d="M-31 49l47 332q80 -123 211 -123q107 0 160 57t72 189l86 610h-295l41 289h639l-131 -938q-19 -136 -70 -234.5t-127 -155t-164 -82.5t-194 -26q-98 0 -171.5 24t-103.5 58z" />
<glyph unicode="K" horiz-adv-x="1363" d="M47 0l197 1403h344l-80 -572l582 572h350l-563 -545l401 -858h-375l-274 614l-174 -172l-62 -442h-346z" />
<glyph unicode="L" horiz-adv-x="1009" d="M47 0l197 1403h344l-156 -1112h492l-41 -291h-836z" />
<glyph unicode="M" horiz-adv-x="1701" d="M47 0l197 1403h313l332 -600l473 600h313l-196 -1403h-344l122 887l-434 -547h-18l-291 545l-123 -885h-344z" />
<glyph unicode="N" horiz-adv-x="1466" d="M49 0l178 1274l-69 129h407l447 -828h6l115 828h307l-197 -1403h-274l-486 885h-4l-123 -885h-307z" />
<glyph unicode="O" horiz-adv-x="1568" d="M68 551q0 170 47.5 316t128 249t187 176.5t226 108.5t244.5 35q287 0 453 -150.5t166 -433.5q0 -170 -47.5 -315.5t-128 -249t-187.5 -176.5t-226 -108.5t-243 -35.5q-288 0 -454 150t-166 434zM426 604q0 -167 79 -256.5t228 -89.5q188 0 310 148.5t122 396.5 q0 164 -79.5 253t-227.5 89q-190 0 -311 -146t-121 -395z" />
<glyph unicode="P" horiz-adv-x="1241" d="M47 0l197 1403h471q534 0 534 -379q0 -132 -42.5 -243.5t-124.5 -195t-212 -130.5t-295 -47h-67l35 251h57q139 0 215 78.5t76 218.5q0 185 -225 185h-115l-160 -1141h-344z" />
<glyph unicode="Q" horiz-adv-x="1568" d="M70 547q0 170 47.5 316t128 249t187 176.5t226 108.5t244.5 35q287 0 453 -150.5t166 -433.5q0 -170 -47 -315t-128.5 -249t-185.5 -175.5t-225 -108.5l176 -303h-393l-135 272q-242 27 -378 174t-136 404zM428 600q0 -167 79 -256.5t228 -89.5q188 0 310 148.5 t122 396.5q0 164 -79.5 253t-227.5 89q-190 0 -311 -146t-121 -395z" />
<glyph unicode="R" horiz-adv-x="1277" d="M47 0l197 1403h485q502 0 502 -356q0 -204 -111 -337.5t-299 -185.5l363 -524h-387l-316 498h-20l-70 -498h-344zM494 729h114q123 0 194.5 65t71.5 189q0 158 -210 158h-113z" />
<glyph unicode="S" horiz-adv-x="1089" d="M8 68l49 342q47 -68 139.5 -114t213.5 -46q120 0 187 47.5t67 132.5q0 51 -37 77.5t-131 47.5l-52 10q-319 64 -319 344q0 242 163.5 384.5t428.5 142.5q143 0 233.5 -29.5t132.5 -71.5l-47 -340q-44 69 -137.5 112.5t-220.5 43.5q-219 0 -219 -166q0 -47 32.5 -74 t114.5 -45l53 -10q166 -35 253 -112t87 -222q0 -247 -170 -401t-458 -154q-140 0 -230 30t-133 71z" />
<glyph unicode="T" horiz-adv-x="1189" d="M109 1114l41 289h1110l-41 -289h-383l-156 -1114h-344l156 1114h-383z" />
<glyph unicode="U" horiz-adv-x="1486" d="M114 368q-5 41 -5 86q0 75 14 162l110 787h345l-111 -789q-8 -59 -9 -108q0 -102 38 -160q54 -86 200 -86q142 0 221 86t105 268l113 789h338l-109 -787q-19 -134 -65 -242.5t-113 -183.5t-154 -125.5t-185.5 -74t-209.5 -23.5q-115 0 -204.5 22.5t-159 70.5t-107.5 124 t-52 184z" />
<glyph unicode="V" horiz-adv-x="1320" d="M113 1403h362l170 -899h10l428 899h338q-38 -69 -364 -716.5t-346 -686.5h-287z" />
<glyph unicode="W" horiz-adv-x="1947" d="M131 1403h363l94 -891h12l303 688l-35 203h332l146 -891h8l348 891h340l-623 -1403h-280l-146 795l-366 -795h-277z" />
<glyph unicode="X" horiz-adv-x="1257" d="M-78 0l541 737l-305 666h360l184 -410l271 410h348l-496 -658l336 -745h-358l-215 487l-320 -487h-346z" />
<glyph unicode="Y" horiz-adv-x="1277" d="M106 1403h386l194 -533l354 533h346l-585 -834l-80 -569h-344l80 569z" />
<glyph unicode="Z" horiz-adv-x="1095" d="M-27 0l13 92l688 1030h-533l41 281h953l-13 -92l-688 -1030h545l-37 -281h-969z" />
<glyph unicode="[" horiz-adv-x="743" d="M4 -244l238 1694h559l-33 -231h-289l-172 -1231h289l-33 -232h-559z" />
<glyph unicode="\" horiz-adv-x="1349" d="M166 1587h256l778 -1751h-254z" />
<glyph unicode="]" horiz-adv-x="743" d="M-66 -244l33 232h289l172 1231h-289l33 231h561l-237 -1694h-562z" />
<glyph unicode="^" horiz-adv-x="1114" d="M113 965l555 657h14l373 -657h-322l-127 245l-192 -245h-301z" />
<glyph unicode="_" horiz-adv-x="1509" d="M20 -367l35 256h1182l-37 -256h-1180z" />
<glyph unicode="`" horiz-adv-x="1259" d="M514 1550h313l199 -284h-281z" />
<glyph unicode="a" d="M51 453q0 165 43.5 301.5t119 227t178.5 140t222 49.5q95 0 162.5 -33t102.5 -91l36 92h265l-115 -826q-1 -9 -1 -16q0 -49 46 -49q52 0 102 65l-38 -272q-28 -26 -79.5 -46t-121.5 -20q-95 0 -154 41t-78 115q-28 -69 -108.5 -116.5t-190.5 -47.5q-184 0 -287.5 125 t-103.5 361zM399 469q0 -233 158 -233q66 0 112.5 35.5t67.5 93.5l68 464q-16 35 -52.5 57.5t-88.5 22.5q-70 0 -122.5 -35t-83 -97t-45 -139t-14.5 -169z" />
<glyph unicode="b" horiz-adv-x="1255" d="M31 0l219 1550h334l-70 -491q98 112 289 112t288 -118.5t97 -352.5q0 -169 -44.5 -308.5t-122.5 -231.5t-183 -142.5t-226 -50.5q-190 0 -268 133l-55 -100h-258zM410 330q49 -103 165 -103q89 0 151 60.5t89 156t27 218.5q0 119 -37 179t-127 60q-72 0 -125.5 -42 t-81.5 -109z" />
<glyph unicode="c" horiz-adv-x="1019" d="M51 473q0 143 36 261t98 198t146 134.5t178.5 79.5t197.5 25q203 0 297 -94l-43 -313q-53 63 -112 93t-142 30q-145 0 -225.5 -103t-80.5 -284q0 -123 50 -184.5t165 -61.5q161 0 295 125l-45 -307q-52 -44 -142.5 -74.5t-197.5 -30.5q-224 0 -349.5 130t-125.5 376z" />
<glyph unicode="d" horiz-adv-x="1314" d="M51 453q0 169 45 306t124 226.5t184.5 137.5t226.5 48q79 0 142.5 -26.5t96.5 -75.5l68 481h336l-174 -1237q-4 -35 7.5 -50t39.5 -15q54 0 100 65l-37 -272q-27 -25 -79 -45.5t-121 -20.5q-200 0 -234 166q-33 -79 -118 -126.5t-207 -47.5q-195 0 -297.5 125.5 t-102.5 360.5zM395 475q0 -119 38 -179t128 -60q74 0 128.5 41.5t84.5 107.5l60 420q-48 104 -170 104q-90 0 -152 -60t-89.5 -155.5t-27.5 -218.5z" />
<glyph unicode="e" horiz-adv-x="1142" d="M53 489q0 157 51.5 288t138.5 216t197.5 131.5t231.5 46.5q200 0 311 -91t111 -265q0 -182 -139.5 -295.5t-381.5 -113.5q-106 0 -165 18v-2q0 -76 65.5 -132.5t181.5 -56.5q120 0 212 44t145 110l-43 -289q-41 -55 -140.5 -93t-232.5 -38q-252 0 -397.5 135t-145.5 387z M420 639q37 -12 102 -12q127 0 190.5 42.5t63.5 121.5q0 118 -131 118q-89 0 -152.5 -71t-72.5 -199z" />
<glyph unicode="f" horiz-adv-x="763" d="M33 -395l178 1267h-131l14 115l139 111q-18 52 -18 106q0 121 65.5 209.5t167 130t222.5 41.5q107 0 174 -20t94 -47l-39 -279q-23 42 -74.5 65t-117.5 23q-162 0 -162 -131q0 -36 14 -61h223l-34 -263h-203l-176 -1267h-336z" />
<glyph unicode="g" horiz-adv-x="1251" d="M-2 -305l55 309q45 -70 142 -118t213 -48q148 0 223 61t90 193l8 70q-91 -113 -264 -113q-186 0 -291.5 126.5t-105.5 350.5q0 286 154.5 465.5t398.5 179.5q104 0 175 -41t99 -106l43 115h264l-145 -1045q-37 -265 -201.5 -394.5t-470.5 -129.5q-130 0 -235.5 36 t-151.5 89zM412 553q0 -99 41.5 -167.5t126.5 -68.5q73 0 117.5 33t72.5 96l51 359q-14 46 -57 75t-107 29q-70 0 -120.5 -32.5t-76.5 -88t-37 -113t-11 -122.5z" />
<glyph unicode="h" d="M31 0l217 1550h336l-74 -532q46 67 125 110t178 43q346 0 346 -337q0 -72 -16 -158l-68 -363q-2 -12 -2 -22q0 -43 39 -43q56 0 102 65l-36 -272q-71 -66 -199 -66q-131 1 -199 81q-48 56 -48 153q0 41 9 90l58 319q15 82 15 139q0 53 -13 83q-27 64 -121 65 q-71 0 -126 -45.5t-83 -109.5l-104 -750h-336z" />
<glyph unicode="i" horiz-adv-x="669" d="M98 874l41 265h430l-129 -826q-5 -33 5 -49t38 -16q55 0 105 65l-39 -272q-71 -66 -207 -66q-132 0 -199 80q-47 56 -47 155q0 41 8 89l97 575h-103zM264 1380q0 89 54 140t141 51q74 0 115.5 -35t41.5 -96q0 -87 -56 -137t-144 -50q-72 0 -112 33t-40 94z" />
<glyph unicode="j" horiz-adv-x="630" d="M-227 -360l34 256q26 -29 64.5 -46.5t75.5 -17.5q60 0 91.5 28t41.5 97l135 917h-117l41 265h443l-164 -1162q-27 -195 -133.5 -298t-294.5 -103q-72 0 -131.5 19.5t-85.5 44.5zM276 1380q0 89 54 140t141 51q74 0 116 -35t42 -96q0 -87 -56 -137t-145 -50q-72 0 -112 33 t-40 94z" />
<glyph unicode="k" horiz-adv-x="1236" d="M31 0l217 1550h336l-76 -528q60 58 168.5 105t226.5 47q130 0 202.5 -68t72.5 -184q0 -236 -289 -418l231 -504h-356l-166 369q-92 -35 -188 -58l-43 -311h-336zM442 541q226 86 316 157.5t90 145.5q0 69 -76 69q-60 0 -153 -51.5t-148 -109.5z" />
<glyph unicode="l" horiz-adv-x="665" d="M82 283l178 1267h334l-172 -1224q-2 -14 -2 -26q0 -28 10 -42q14 -20 51 -20q63 0 105 49l-35 -258q-28 -24 -82.5 -43t-126.5 -19q-150 0 -216 81q-50 61 -50 163q0 34 6 72z" />
<glyph unicode="m" horiz-adv-x="1886" d="M31 0l159 1139h297l7 -133q46 73 131 119t186 46q234 0 293 -170q49 77 131.5 123.5t191.5 46.5q339 0 338 -331q0 -74 -16 -164l-66 -363q-2 -12 -2 -22q0 -43 39 -43q57 0 103 65l-39 -272q-71 -66 -197 -66q-130 1 -198 81q-48 56 -48 153q0 41 9 90l57 319 q16 86 16 145q0 49 -11 77q-25 64 -118 65q-102 0 -170 -92q0 -59 -12 -151l-92 -662h-336l86 623q16 101 16 163q0 66 -26 93q-24 26 -84 26q-68 0 -124 -46.5t-81 -108.5l-104 -750h-336z" />
<glyph unicode="n" d="M31 0l159 1139h297l7 -133q47 74 130 119.5t191 45.5q214 0 293 -128q51 -82 51 -210q0 -71 -16 -157l-66 -363q-2 -12 -2 -22q0 -43 39 -43q57 0 103 65l-37 -272q-71 -66 -199 -66q-131 0 -199 80q-48 56 -48 153q0 42 9 91l58 319q15 83 15 140q0 54 -13 84 q-27 64 -121 63q-71 0 -127 -45.5t-84 -109.5l-104 -750h-336z" />
<glyph unicode="o" horiz-adv-x="1247" d="M49 446q0 182 56 324.5t150.5 228t210.5 129t245 43.5q216 0 342.5 -120.5t126.5 -358.5q0 -148 -36.5 -270t-99 -205t-147.5 -140.5t-179 -83.5t-196 -26q-218 0 -345.5 120t-127.5 359zM393 469q0 -227 174 -227q122 0 195.5 117t73.5 307q0 112 -40.5 171.5 t-133.5 59.5q-122 0 -195.5 -119.5t-73.5 -308.5z" />
<glyph unicode="p" horiz-adv-x="1257" d="M-25 -397l218 1536h280l2 -131q37 74 121 118.5t205 44.5q391 0 391 -471q0 -169 -44.5 -308.5t-122.5 -231.5t-183 -142.5t-226 -50.5q-79 0 -142.5 27.5t-96.5 77.5l-66 -469h-336zM414 330q49 -103 166 -103q68 0 119.5 34.5t82.5 95t46.5 137.5t15.5 168 q0 119 -37 179t-125 60q-72 0 -126.5 -42.5t-82.5 -108.5z" />
<glyph unicode="q" horiz-adv-x="1257" d="M51 453q0 168 45 305t123.5 226.5t183.5 138t226 48.5q187 0 268 -133l55 101h256l-215 -1536h-336l68 477q-99 -113 -281 -113q-191 0 -292 125.5t-101 360.5zM395 475q0 -120 38 -179.5t128 -59.5q72 0 125 42t82 107l59 420q-45 104 -165 104q-88 0 -150 -61 t-89.5 -156.5t-27.5 -216.5z" />
<glyph unicode="r" horiz-adv-x="800" d="M31 0l159 1139h275l-2 -195q29 115 100 171t158 56q79 0 98 -67l-43 -309q-39 71 -110 71q-61 0 -117.5 -45.5t-87.5 -132.5l-94 -688h-336z" />
<glyph unicode="s" horiz-adv-x="989" d="M18 104l48 304q55 -80 147 -129.5t203 -49.5q161 0 164 95q0 41 -27.5 63.5t-91.5 42.5l-84 25q-135 36 -211 121t-76 212q0 172 123.5 277.5t347.5 105.5q138 0 238 -38t141 -91l-43 -299q-45 75 -144.5 120.5t-209.5 45.5q-65 0 -103.5 -24t-38.5 -74q0 -44 28 -66 t93 -43l80 -26q147 -48 218 -122t71 -202q0 -173 -130.5 -279t-363.5 -106q-128 0 -234 41t-145 96z" />
<glyph unicode="t" horiz-adv-x="837" d="M80 877l16 120l129 142l242 268h156l-39 -268h262l-35 -262h-262l-74 -517q-3 -21 -3 -38q0 -34 12 -54q18 -30 67 -30q109 0 178 96l-37 -275q-92 -92 -272 -92q-292 0 -292 270q0 42 7 91l78 549h-133z" />
<glyph unicode="u" horiz-adv-x="1337" d="M92 874l41 265h442l-100 -647q-10 -65 -10 -113q0 -55 14 -87q26 -58 117 -59q71 0 123.5 46.5t77.5 109.5l106 750h334l-115 -826q-1 -9 -1 -16q0 -49 46 -49q53 0 103 65l-39 -272q-28 -26 -79.5 -46t-121.5 -20q-200 0 -237 166q-36 -74 -123 -124t-193 -50 q-203 -1 -291 117q-63 84 -63 224q0 57 10 124l72 442h-113z" />
<glyph unicode="v" horiz-adv-x="1261" d="M92 874l41 265h440l-94 -615q-7 -45 -10.5 -76t-4.5 -66.5t5.5 -58.5t19 -43.5t35.5 -30t56 -9.5q77 0 134 72t89.5 199t46.5 285q12 138 12 297v46h338q1 -40 1 -78q1 -195 -25 -359q-30 -196 -89.5 -331.5t-146 -227t-190 -134t-224.5 -42.5q-224 0 -328 140 q-72 97 -71 254q0 70 14 151l64 362h-113z" />
<glyph unicode="w" horiz-adv-x="1773" d="M82 874l41 265h452l-94 -615q-11 -63 -13 -111q-1 -15 0 -29q0 -31 4 -60q6 -41 25 -62.5t52 -21.5q57 0 101.5 52.5t73 148.5t45 216t22.5 269h333l-53 -402q-15 -117 -15 -175q0 -22 2 -37q12 -72 72 -72q66 0 114.5 72t75.5 199q26 127 38 284q10 134 10 289v55h338 q1 -44 1 -87q-1 -195 -23 -357q-28 -197 -81 -332t-132 -225t-173 -130.5t-206 -40.5q-235 0 -279 211q-86 -211 -326 -211q-207 0 -297 139q-60 93 -60 243q0 75 15 163l64 362h-127z" />
<glyph unicode="x" horiz-adv-x="1210" d="M-63 0l464 582l-139 292h-137l41 265h328l155 -320l228 320h337l-444 -545l133 -270q21 -44 44.5 -65t56.5 -21q58 0 96 47l-37 -260q-58 -58 -178 -58q-176 0 -264 180l-93 193l-249 -340h-342z" />
<glyph unicode="y" horiz-adv-x="1284" d="M33 -305l55 309q45 -70 141.5 -118t212.5 -48q146 0 220.5 61t91.5 193l14 101q-32 -64 -111 -104t-170 -40q-204 0 -291 117q-62 82 -62 222q0 58 11 126l60 360h-117l41 265h444l-86 -566q-10 -66 -10 -114q0 -55 13 -86q26 -58 118 -58q68 0 120 44.5t77 105.5l96 674 h334l-145 -1045q-37 -265 -200.5 -394.5t-469.5 -129.5q-130 0 -235.5 36t-151.5 89z" />
<glyph unicode="z" horiz-adv-x="1079" d="M-33 0l578 874h-447l37 265h918l-533 -828q54 -69 189 -69q94 0 163 41.5t123 130.5l-55 -348q-32 -46 -104 -72.5t-177 -26.5q-189 0 -286 131l-70 -98h-336z" />
<glyph unicode="{" horiz-adv-x="806" d="M-6 504l31 203l102 10q66 8 112 53t56 123l41 289q43 299 360 299q112 0 164 -41l-33 -232q-47 37 -112 37q-47 0 -76 -24t-35 -70l-39 -274q-11 -75 -38 -128t-66.5 -81t-79 -41.5t-90.5 -18.5v-6q49 -5 85 -18t68 -41.5t43.5 -81t1.5 -127.5l-38 -279 q-6 -43 15.5 -68.5t68.5 -25.5q64 0 124 37l-34 -231q-66 -41 -174 -41q-151 0 -224.5 75.5t-52.5 223.5l41 294q10 76 -23.5 122.5t-95.5 52.5z" />
<glyph unicode="|" horiz-adv-x="522" d="M-8 -309l260 1851h274l-260 -1851h-274z" />
<glyph unicode="}" horiz-adv-x="806" d="M-61 -233l32 231q47 -37 115 -37q47 0 76 25.5t35 68.5l39 279q10 75 37 127.5t66.5 81t79 41.5t89.5 18v6q-31 3 -56.5 9.5t-52.5 19t-44 32t-32 48.5t-16 68t4 92l39 274q12 94 -84 94q-70 0 -125 -37l33 232q71 41 176 41q318 0 275 -299l-41 -289 q-10 -79 23.5 -123.5t97.5 -52.5l100 -10l-29 -203l-102 -10q-66 -8 -113 -54t-57 -121l-41 -294q-21 -148 -114.5 -223.5t-244.5 -75.5q-108 0 -165 41z" />
<glyph unicode="~" horiz-adv-x="1386" d="M72 506q35 253 131.5 378.5t275.5 125.5q94 0 169 -39.5t159 -120.5q55 -52 90 -77t61 -25q33 0 54.5 14.5t42.5 67t35 149.5h266q-72 -504 -414 -504q-102 0 -171.5 38t-156.5 124q-56 53 -90 75.5t-61 22.5q-34 0 -54.5 -14.5t-39.5 -66t-33 -148.5h-264z" />
<glyph unicode="&#xa1;" horiz-adv-x="571" d="M-25 -264l181 979h284l-96 -979h-369zM143 963q0 92 63 150t154 58q77 0 121.5 -39t44.5 -108q0 -93 -61.5 -152t-153.5 -59q-76 0 -122 40.5t-46 109.5z" />
<glyph unicode="&#xa2;" horiz-adv-x="1110" d="M74 539q0 147 36.5 269t100 207t151.5 143.5t190.5 86t217.5 27.5q24 0 74 -4l69 178h129l-77 -199q76 -24 118 -63l-45 -332q-77 92 -184 117l-238 -609q12 -2 41 -2q102 0 181 30t153 93l-43 -313q-55 -43 -150 -72.5t-202 -29.5q-63 0 -94 4l-70 -181h-129l80 203 q-149 42 -229 154t-80 293zM420 588q0 -135 82 -193l229 586q-149 -4 -230 -108.5t-81 -284.5z" />
<glyph unicode="&#xa3;" horiz-adv-x="1253" d="M-14 0l39 285q21 -27 51 -27q37 0 58 22t32 68l59 232h-155l22 149h172l41 156q66 251 207 373t387 122q111 0 186 -33.5t111 -80.5l-49 -365q-84 178 -266 178q-111 0 -163 -48t-79 -152l-39 -150h303l-20 -149h-320l-57 -230q-2 -2 -2 -8l67 -31q111 -53 273 -53 q94 0 176.5 56.5t126.5 138.5l-49 -355q-104 -131 -322 -131q-86 0 -160 26.5t-157 74.5l-58 38q-101 -139 -290 -139q-39 0 -75 9.5t-50 23.5z" />
<glyph unicode="&#xa4;" horiz-adv-x="1273" d="M18 193l189 184q-23 77 -23 168q0 304 115 477l-139 184l129 101l125 -166q128 92 317 92q184 0 281 -84l166 158l96 -101l-182 -178q24 -73 24 -174q0 -310 -115 -487l132 -174l-127 -101l-119 156q-121 -86 -307 -86q-201 0 -297 90l-166 -160zM453 598 q0 -95 37.5 -141.5t119.5 -46.5q114 0 176 100.5t62 292.5q0 95 -37 140.5t-119 45.5q-115 0 -177 -99.5t-62 -291.5z" />
<glyph unicode="&#xa5;" horiz-adv-x="1337" d="M113 371l20 143h344l12 88h-344l21 143h280l-288 603h362l193 -453l336 453h325l-454 -603h280l-20 -143h-342l-13 -88h342l-18 -143h-344l-51 -371h-348l51 371h-344z" />
<glyph unicode="&#xa6;" horiz-adv-x="528" d="M-6 -309l119 827h274l-117 -827h-276zM141 715l115 827h274l-114 -827h-275z" />
<glyph unicode="&#xa7;" horiz-adv-x="1161" d="M-2 -223l45 323q96 -135 352 -135q252 0 252 127q0 40 -41.5 60.5t-146.5 40.5l-49 8q-160 24 -250 92.5t-90 200.5q0 114 65.5 211t159.5 151q-109 63 -109 199q0 213 159.5 330.5t422.5 117.5q130 0 228.5 -24t140.5 -56l-45 -321q-96 129 -359 129q-113 0 -168 -23 t-55 -90q0 -39 37 -56t139 -36l47 -8q84 -15 143 -33t112 -49.5t79.5 -81t26.5 -117.5q0 -123 -63 -219t-157 -158q103 -51 103 -182q0 -220 -172 -349.5t-463 -129.5q-128 0 -216 22.5t-128 55.5zM401 584q0 -85 97 -101l86 -14l59 -10q41 16 79 64.5t38 109.5 q0 80 -103 100l-96 19q-6 2 -16 4t-21 3.5t-14 2.5q-40 -17 -74.5 -63.5t-34.5 -114.5z" />
<glyph unicode="&#xa8;" horiz-adv-x="1261" d="M362 1382q0 72 50.5 117t124.5 45q63 0 98 -30t35 -84q0 -74 -48 -118t-124 -44q-63 0 -99.5 30t-36.5 84zM809 1380q0 73 49 118.5t121 45.5q62 0 97.5 -30t35.5 -84q0 -74 -48 -118t-124 -44q-61 0 -96 29.5t-35 82.5z" />
<glyph unicode="&#xa9;" horiz-adv-x="1912" d="M68 569q0 185 54 347.5t150 283.5t224.5 208t280 131t313.5 44q229 0 405 -84t276.5 -248t100.5 -387q0 -155 -38.5 -295t-107.5 -250.5t-165 -200t-209.5 -148.5t-242 -90.5t-263.5 -31.5q-228 0 -403 84t-275 248.5t-100 388.5zM283 590q0 -269 160 -415t431 -146 q128 0 244.5 34.5t214.5 103.5t170.5 166t113 230t40.5 287q0 265 -159.5 409t-430.5 144q-159 0 -300 -54.5t-249.5 -155t-171.5 -256.5t-63 -347zM479 606q0 128 36 235.5t95 179.5t137 123t159.5 74t164.5 23q201 0 293 -84l-37 -262q-30 66 -102 99.5t-172 33.5 q-139 0 -223.5 -99.5t-84.5 -277.5q0 -113 57 -176t163 -63q98 0 182 30.5t129 89.5l-35 -247q-46 -38 -133 -63t-184 -25q-99 0 -179 23.5t-140 72t-93 128t-33 185.5z" />
<glyph unicode="&#xaa;" horiz-adv-x="1024" d="M106 346l31 223h762l-31 -223h-762zM129 891q0 145 107.5 218t328.5 101l140 19q2 14 2 37q0 64 -40.5 90t-127.5 26q-99 0 -188 -41t-136 -110l33 237q45 47 137 82t229 35q369 0 369 -289q0 -36 -6 -79l-72 -512h-239l-13 71q-29 -40 -90.5 -68t-152.5 -28 q-128 0 -204.5 53.5t-76.5 157.5zM391 926q0 -70 103 -70q54 0 99 16.5t69 42.5l20 160l-109 -22q-101 -21 -141.5 -47.5t-40.5 -79.5z" />
<glyph unicode="&#xab;" horiz-adv-x="1255" d="M33 514q277 270 424 492h299q-186 -263 -412 -492q124 -181 270 -514h-299q-108 283 -282 514zM506 514q269 260 426 492h297q-193 -273 -412 -492q135 -195 270 -514h-296q-115 291 -285 514z" />
<glyph unicode="&#xac;" horiz-adv-x="1226" d="M90 592l41 289h1008l-86 -619h-301l47 330h-709z" />
<glyph unicode="&#xad;" horiz-adv-x="776" d="M90 496l39 276h555l-37 -276h-557z" />
<glyph unicode="&#xae;" horiz-adv-x="1191" d="M133 991q0 136 48.5 249.5t130.5 187.5t188.5 114.5t224.5 40.5q205 0 331 -111t126 -307q0 -135 -49 -247.5t-131.5 -186t-190 -113.5t-225.5 -40q-204 0 -328.5 109.5t-124.5 303.5zM291 1012q0 -140 85.5 -216.5t229.5 -76.5q170 0 281 102h-150l-137 168h-8l-23 -168 h-166l76 535h215q228 0 228 -139q0 -79 -41 -122.5t-113 -66.5l156 -172q96 117 96 297q0 140 -83.5 214.5t-227.5 74.5q-178 0 -298 -113.5t-120 -316.5zM610 1118h64q78 0 78 68q0 45 -64 45h-61z" />
<glyph unicode="&#xaf;" horiz-adv-x="1228" d="M365 1319l26 176h688l-26 -176h-688z" />
<glyph unicode="&#xb0;" horiz-adv-x="966" d="M131 1026q0 91 34 172t95 140.5t150 94.5t194 35q170 0 264.5 -85.5t94.5 -227.5q0 -92 -34.5 -173.5t-96 -142t-150.5 -95.5t-193 -35q-171 0 -264.5 86.5t-93.5 230.5zM387 1055q0 -67 35.5 -103.5t99.5 -36.5q82 0 135.5 59t53.5 152q0 64 -36.5 101t-101.5 37 q-81 0 -133.5 -59.5t-52.5 -149.5z" />
<glyph unicode="&#xb1;" horiz-adv-x="1187" d="M18 0l39 285h979l-39 -285h-979zM135 825l39 285h340l47 338h297l-47 -338h342l-41 -285h-340l-49 -338h-297l47 338h-338z" />
<glyph unicode="&#xb2;" horiz-adv-x="821" d="M80 692l10 88l326 273q147 124 147 219q0 92 -145 92q-74 0 -150 -27.5t-125 -66.5l31 215q117 86 326 86q329 0 329 -225q0 -50 -17 -98t-38.5 -82t-62 -74.5t-68.5 -63t-76 -59.5l-86 -66h328l-29 -211h-700z" />
<glyph unicode="&#xb3;" horiz-adv-x="819" d="M82 719l31 219q72 -61 211 -61q117 0 165 26.5t48 79.5q0 38 -34.5 55t-121.5 17h-84l8 63l219 228h-364l28 204h682l-10 -63l-248 -264q205 -31 205 -197q0 -71 -30 -134t-89 -112.5t-155 -78.5t-219 -29q-166 0 -242 47z" />
<glyph unicode="&#xb4;" horiz-adv-x="1255" d="M408 1266l278 284h311l-315 -284h-274z" />
<glyph unicode="&#xb6;" horiz-adv-x="1239" d="M117 1067q0 143 104.5 248.5t267.5 105.5h707l-203 -1450l-225 -86l184 1327h-198l-197 -1407l-225 -86l155 1104q-31 -12 -84 -12q-135 0 -210.5 72t-75.5 184z" />
<glyph unicode="&#xb7;" horiz-adv-x="1157" d="M412 688q0 89 53.5 140t140.5 51q74 0 116 -35t42 -96q0 -87 -56 -137t-145 -50q-72 0 -111.5 33t-39.5 94z" />
<glyph unicode="&#xb8;" horiz-adv-x="1179" d="M176 -510l25 178q65 -65 198 -65t133 96q0 55 -92 55q-41 0 -91 -11.5t-81 -25.5l121 283h150l-58 -123q20 10 62 10q94 0 144 -40t50 -115q0 -136 -101.5 -212.5t-258.5 -76.5q-128 0 -201 47z" />
<glyph unicode="&#xb9;" horiz-adv-x="751" d="M125 1231l29 207q136 0 228.5 26.5t160.5 85.5h145l-90 -651h166l-29 -207h-602l29 207h178l49 363q-79 -31 -264 -31z" />
<glyph unicode="&#xba;" horiz-adv-x="1114" d="M139 346l31 223h766l-31 -223h-766zM150 1038q0 135 46 242t124.5 172t175.5 99t206 34q187 0 294.5 -91.5t107.5 -270.5q0 -109 -30.5 -199.5t-82.5 -153t-122.5 -106t-149.5 -64t-164 -20.5q-188 0 -296.5 89.5t-108.5 268.5zM434 1061q0 -168 160 -168q109 0 169 80.5 t60 224.5q0 174 -161 174q-112 0 -170 -82.5t-58 -228.5z" />
<glyph unicode="&#xbb;" horiz-adv-x="1255" d="M-10 0q219 315 413 514q-168 241 -272 492h297q88 -227 287 -492q-251 -242 -426 -514h-299zM465 0q223 320 414 514q-162 225 -275 492h299q91 -235 287 -492q-247 -239 -428 -514h-297z" />
<glyph unicode="&#xbc;" horiz-adv-x="1966" d="M133 1083l29 207q259 0 389 113h147l-92 -651h166l-31 -207h-602l29 207h178l51 362q-76 -31 -264 -31zM403 0l1088 1403h154l-1088 -1403h-154zM1030 158l8 65l353 635h247l-264 -502h172l72 281h205l-39 -281h88l-29 -198h-86l-22 -158h-250l20 158h-475z" />
<glyph unicode="&#xbd;" horiz-adv-x="1968" d="M129 1083l29 207q259 0 389 113h147l-92 -651h166l-31 -207h-602l29 207h178l51 362q-76 -31 -264 -31zM381 0l1087 1403h154l-1087 -1403h-154zM1116 0l12 88l324 272q147 121 147 220q0 92 -143 92q-74 0 -150 -28t-124 -66l30 215q117 86 326 86q330 0 330 -226 q0 -62 -21.5 -117t-65.5 -104.5t-79.5 -80.5t-95.5 -77l-86 -65h327l-28 -209h-703z" />
<glyph unicode="&#xbe;" horiz-adv-x="1966" d="M86 571l31 220q73 -62 211 -62q119 0 166 28t47 83q0 35 -36 51t-122 16h-84l10 64l219 227h-364l29 205h681l-10 -64l-250 -264q207 -30 207 -196q0 -71 -30 -134t-89 -113t-155 -79t-219 -29q-170 0 -242 47zM383 0l1087 1403h154l-1087 -1403h-154zM1028 158l8 65 l353 635h247l-264 -502h172l72 281h205l-39 -281h88l-29 -198h-86l-22 -158h-250l20 158h-475z" />
<glyph unicode="&#xbf;" horiz-adv-x="964" d="M-29 0q0 36 6 71t13 62.5t24 59t28 51t37 49.5t38.5 44t45 43.5t44 39.5t47.5 41q63 55 90 108t35 127l2 19h317l-2 -17q-14 -126 -63.5 -210.5t-147.5 -168.5q-55 -48 -80 -73t-45 -62.5t-20 -79.5q0 -108 160 -108q93 0 188 48.5t148 121.5l-45 -324 q-53 -58 -166 -98.5t-250 -40.5q-193 0 -298.5 75.5t-105.5 221.5zM389 965q0 91 62.5 148.5t154.5 57.5q75 0 119.5 -39t44.5 -108q0 -93 -60.5 -152t-152.5 -59q-76 0 -122 41t-46 111z" />
<glyph unicode="&#xc0;" horiz-adv-x="1378" d="M-82 0l686 1260l-31 143h353l366 -1403h-356l-62 254h-497l-129 -254h-330zM440 1802h314l198 -284h-280zM500 496h317l-76 319l-20 119l-57 -119z" />
<glyph unicode="&#xc1;" horiz-adv-x="1378" d="M-82 0l686 1260l-31 143h353l366 -1403h-356l-62 254h-497l-129 -254h-330zM500 496h317l-76 319l-20 119l-57 -119zM621 1518l278 284h311l-315 -284h-274z" />
<glyph unicode="&#xc2;" horiz-adv-x="1378" d="M-82 0l686 1260l-31 143h353l366 -1403h-356l-62 254h-497l-129 -254h-330zM418 1524l301 278h217l223 -278h-256l-98 106l-131 -106h-256zM500 496h317l-76 319l-20 119l-57 -119z" />
<glyph unicode="&#xc3;" horiz-adv-x="1378" d="M-82 0l686 1260l-31 143h353l366 -1403h-356l-62 254h-497l-129 -254h-330zM412 1544q17 124 91 191t183 67q39 0 75 -10t55 -20.5t46 -28.5q53 -37 88 -37q32 0 48.5 20.5t23.5 71.5h186q-17 -125 -91.5 -191.5t-182.5 -66.5q-95 0 -174 55q-62 43 -90 43q-31 0 -48 -21 t-24 -73h-186zM500 496h317l-76 319l-20 119l-57 -119z" />
<glyph unicode="&#xc4;" horiz-adv-x="1378" d="M-82 0l686 1260l-31 143h353l366 -1403h-356l-62 254h-497l-129 -254h-330zM430 1634q0 72 50 117t124 45q63 0 98 -30.5t35 -84.5q0 -74 -48 -117.5t-124 -43.5q-63 0 -99 30t-36 84zM500 496h317l-76 319l-20 119l-57 -119zM877 1632q0 73 49 118.5t121 45.5 q62 0 97.5 -30.5t35.5 -84.5q0 -74 -48 -117.5t-124 -43.5q-61 0 -96 29.5t-35 82.5z" />
<glyph unicode="&#xc5;" horiz-adv-x="1378" d="M-82 0l686 1260l-31 143h353l366 -1403h-356l-62 254h-497l-129 -254h-330zM500 496h317l-76 319l-20 119l-57 -119zM541 1700q0 118 86.5 192t222.5 74q116 0 180 -52t64 -142q0 -119 -86.5 -193t-223.5 -74q-116 0 -179.5 51.5t-63.5 143.5zM719 1720q0 -67 86 -67 q58 0 84 28.5t26 73.5q0 64 -86 64q-56 0 -83 -28.5t-27 -70.5z" />
<glyph unicode="&#xc6;" horiz-adv-x="1783" d="M-90 0l778 1260l-26 143h1150l-38 -283h-707l45 -266h412l-37 -268h-318l48 -303h438l-39 -283h-686l-41 254h-498l-149 -254h-332zM530 496h318l-49 317l-19 125l-57 -125z" />
<glyph unicode="&#xc7;" horiz-adv-x="1243" d="M74 539q0 173 43 320t118 252t176 179t216 110t239 36q269 0 389 -115l-47 -348q-93 170 -338 170q-199 0 -320.5 -142.5t-121.5 -398.5q0 -162 82 -251t238 -89q242 0 382 156l-45 -318q-66 -60 -176.5 -96.5t-240.5 -36.5h-23l-41 -90q20 10 62 10q94 0 144 -40 t50 -115q0 -136 -101.5 -212.5t-258.5 -76.5q-128 0 -201 47l25 178q65 -65 198 -65t133 96q0 55 -92 55q-41 0 -91 -11.5t-81 -25.5l113 265q-209 37 -319.5 177t-110.5 380z" />
<glyph unicode="&#xc8;" horiz-adv-x="1169" d="M47 0l197 1403h954l-41 -283h-608l-39 -266h397l-35 -268h-399l-43 -303h608l-37 -283h-954zM391 1802h314l198 -284h-280z" />
<glyph unicode="&#xc9;" horiz-adv-x="1169" d="M47 0l197 1403h954l-41 -283h-608l-39 -266h397l-35 -268h-399l-43 -303h608l-37 -283h-954zM573 1518l279 284h311l-315 -284h-275z" />
<glyph unicode="&#xca;" horiz-adv-x="1169" d="M47 0l197 1403h954l-41 -283h-608l-39 -266h397l-35 -268h-399l-43 -303h608l-37 -283h-954zM371 1524l301 278h217l223 -278h-256l-98 106l-131 -106h-256z" />
<glyph unicode="&#xcb;" horiz-adv-x="1169" d="M47 0l197 1403h954l-41 -283h-608l-39 -266h397l-35 -268h-399l-43 -303h608l-37 -283h-954zM381 1634q0 72 50 117t124 45q63 0 98 -30.5t35 -84.5q0 -74 -48 -117.5t-124 -43.5q-63 0 -99 30t-36 84zM827 1632q0 73 49 118.5t121 45.5q62 0 97.5 -30.5t35.5 -84.5 q0 -74 -48 -117.5t-124 -43.5q-61 0 -96 29.5t-35 82.5z" />
<glyph unicode="&#xcc;" horiz-adv-x="614" d="M47 0l197 1403h344l-197 -1403h-344zM84 1802h313l199 -284h-281z" />
<glyph unicode="&#xcd;" horiz-adv-x="614" d="M47 0l197 1403h344l-197 -1403h-344zM264 1518l279 284h311l-315 -284h-275z" />
<glyph unicode="&#xce;" horiz-adv-x="614" d="M47 0l197 1403h344l-197 -1403h-344zM61 1524l301 278h218l223 -278h-256l-98 106l-132 -106h-256z" />
<glyph unicode="&#xcf;" horiz-adv-x="614" d="M47 0l197 1403h344l-197 -1403h-344zM74 1634q0 72 50 117t124 45q63 0 98 -30.5t35 -84.5q0 -74 -48 -117.5t-124 -43.5q-63 0 -99 30t-36 84zM520 1632q0 73 49 118.5t121 45.5q62 0 97.5 -30.5t35.5 -84.5q0 -74 -48 -117.5t-124 -43.5q-61 0 -96 29.5t-35 82.5z" />
<glyph unicode="&#xd0;" horiz-adv-x="1427" d="M20 621l21 161h121l88 621h452q163 0 284.5 -29t210 -91.5t133 -166t44.5 -248.5q0 -187 -47.5 -336.5t-128 -247.5t-192.5 -163t-236 -93t-264 -28h-453l86 621h-119zM436 285h109q250 0 362.5 131.5t112.5 404.5q0 155 -83 226t-275 71h-109l-47 -336h254l-23 -161 h-254z" />
<glyph unicode="&#xd1;" horiz-adv-x="1466" d="M49 0l178 1274l-69 129h407l447 -828h6l115 828h307l-197 -1403h-274l-486 885h-4l-123 -885h-307zM485 1575q17 124 91.5 191t183.5 67q39 0 75 -10t55 -20.5t46 -28.5q53 -37 88 -37q32 0 48.5 20.5t23.5 71.5h186q-17 -125 -91.5 -191.5t-182.5 -66.5q-95 0 -174 55 q-62 43 -91 43q-31 0 -47.5 -21t-23.5 -73h-187z" />
<glyph unicode="&#xd2;" horiz-adv-x="1568" d="M68 551q0 170 47.5 316t128 249t187 176.5t226 108.5t244.5 35q287 0 453 -150.5t166 -433.5q0 -170 -47.5 -315.5t-128 -249t-187.5 -176.5t-226 -108.5t-243 -35.5q-288 0 -454 150t-166 434zM426 604q0 -167 79 -256.5t228 -89.5q188 0 310 148.5t122 396.5 q0 164 -79.5 253t-227.5 89q-190 0 -311 -146t-121 -395zM563 1802h314l198 -284h-280z" />
<glyph unicode="&#xd3;" horiz-adv-x="1568" d="M68 551q0 170 47.5 316t128 249t187 176.5t226 108.5t244.5 35q287 0 453 -150.5t166 -433.5q0 -170 -47.5 -315.5t-128 -249t-187.5 -176.5t-226 -108.5t-243 -35.5q-288 0 -454 150t-166 434zM426 604q0 -167 79 -256.5t228 -89.5q188 0 310 148.5t122 396.5 q0 164 -79.5 253t-227.5 89q-190 0 -311 -146t-121 -395zM743 1518l279 284h311l-315 -284h-275z" />
<glyph unicode="&#xd4;" horiz-adv-x="1568" d="M68 551q0 170 47.5 316t128 249t187 176.5t226 108.5t244.5 35q287 0 453 -150.5t166 -433.5q0 -170 -47.5 -315.5t-128 -249t-187.5 -176.5t-226 -108.5t-243 -35.5q-288 0 -454 150t-166 434zM426 604q0 -167 79 -256.5t228 -89.5q188 0 310 148.5t122 396.5 q0 164 -79.5 253t-227.5 89q-190 0 -311 -146t-121 -395zM541 1524l301 278h217l223 -278h-256l-98 106l-131 -106h-256z" />
<glyph unicode="&#xd5;" horiz-adv-x="1568" d="M68 551q0 170 47.5 316t128 249t187 176.5t226 108.5t244.5 35q287 0 453 -150.5t166 -433.5q0 -170 -47.5 -315.5t-128 -249t-187.5 -176.5t-226 -108.5t-243 -35.5q-288 0 -454 150t-166 434zM426 604q0 -167 79 -256.5t228 -89.5q188 0 310 148.5t122 396.5 q0 164 -79.5 253t-227.5 89q-190 0 -311 -146t-121 -395zM535 1544q17 124 91 191t183 67q39 0 75 -10t55 -20.5t46 -28.5q53 -37 88 -37q32 0 48.5 20.5t23.5 71.5h186q-17 -125 -91.5 -191.5t-182.5 -66.5q-95 0 -174 55q-62 43 -90 43q-31 0 -48 -21t-24 -73h-186z" />
<glyph unicode="&#xd6;" horiz-adv-x="1568" d="M68 551q0 170 47.5 316t128 249t187 176.5t226 108.5t244.5 35q287 0 453 -150.5t166 -433.5q0 -170 -47.5 -315.5t-128 -249t-187.5 -176.5t-226 -108.5t-243 -35.5q-288 0 -454 150t-166 434zM426 604q0 -167 79 -256.5t228 -89.5q188 0 310 148.5t122 396.5 q0 164 -79.5 253t-227.5 89q-190 0 -311 -146t-121 -395zM551 1634q0 72 50 117t124 45q63 0 98 -30.5t35 -84.5q0 -74 -48 -117.5t-124 -43.5q-63 0 -99 30t-36 84zM997 1632q0 73 49 118.5t121 45.5q62 0 97.5 -30.5t35.5 -84.5q0 -74 -48 -117.5t-124 -43.5 q-61 0 -96 29.5t-35 82.5z" />
<glyph unicode="&#xd7;" horiz-adv-x="1075" d="M72 510l272 235l-211 240l240 201l209 -240l276 238l180 -201l-276 -238l211 -235l-238 -205l-209 240l-276 -236z" />
<glyph unicode="&#xd8;" horiz-adv-x="1572" d="M-49 0l215 201q-94 139 -94 350q0 170 47.5 316t128 249t187 176.5t226 108.5t244.5 35q272 0 432 -133l111 102h190l-213 -199q99 -145 99 -354q0 -170 -47.5 -315.5t-128 -249t-187.5 -176.5t-226 -108.5t-243 -35.5q-279 0 -438 135l-109 -102h-194zM430 604 q0 -73 16 -139l637 598q-82 82 -221 82q-190 0 -311 -146t-121 -395zM510 344q80 -86 227 -86q188 0 310 148.5t122 396.5q0 82 -20 143z" />
<glyph unicode="&#xd9;" horiz-adv-x="1488" d="M114.5 367.5q-13.5 107.5 8.5 248.5l110 787h345l-111 -789q-26 -182 28.5 -268t200.5 -86q142 0 221 86t105 268l113 789h338l-109 -787q-19 -134 -65 -242.5t-113 -183.5t-154 -125.5t-185.5 -74t-209.5 -23.5q-115 0 -204.5 22.5t-159 70.5t-107.5 124t-51.5 183.5z M524 1802h314l198 -284h-280z" />
<glyph unicode="&#xda;" horiz-adv-x="1488" d="M114.5 367.5q-13.5 107.5 8.5 248.5l110 787h345l-111 -789q-26 -182 28.5 -268t200.5 -86q142 0 221 86t105 268l113 789h338l-109 -787q-19 -134 -65 -242.5t-113 -183.5t-154 -125.5t-185.5 -74t-209.5 -23.5q-115 0 -204.5 22.5t-159 70.5t-107.5 124t-51.5 183.5z M705 1518l278 284h311l-315 -284h-274z" />
<glyph unicode="&#xdb;" horiz-adv-x="1488" d="M114.5 367.5q-13.5 107.5 8.5 248.5l110 787h345l-111 -789q-26 -182 28.5 -268t200.5 -86q142 0 221 86t105 268l113 789h338l-109 -787q-19 -134 -65 -242.5t-113 -183.5t-154 -125.5t-185.5 -74t-209.5 -23.5q-115 0 -204.5 22.5t-159 70.5t-107.5 124t-51.5 183.5z M502 1524l301 278h217l223 -278h-256l-98 106l-131 -106h-256z" />
<glyph unicode="&#xdc;" horiz-adv-x="1488" d="M114.5 367.5q-13.5 107.5 8.5 248.5l110 787h345l-111 -789q-26 -182 28.5 -268t200.5 -86q142 0 221 86t105 268l113 789h338l-109 -787q-19 -134 -65 -242.5t-113 -183.5t-154 -125.5t-185.5 -74t-209.5 -23.5q-115 0 -204.5 22.5t-159 70.5t-107.5 124t-51.5 183.5z M514 1634q0 72 50 117t124 45q63 0 98 -30.5t35 -84.5q0 -74 -48 -117.5t-124 -43.5q-63 0 -99 30t-36 84zM961 1632q0 73 48.5 118.5t120.5 45.5q62 0 98 -30.5t36 -84.5q0 -74 -48 -117.5t-124 -43.5q-61 0 -96 29.5t-35 82.5z" />
<glyph unicode="&#xdd;" horiz-adv-x="1277" d="M106 1403h386l194 -533l354 533h346l-585 -834l-80 -569h-344l80 569zM594 1518l278 284h312l-316 -284h-274z" />
<glyph unicode="&#xde;" horiz-adv-x="1236" d="M47 0l197 1403h344l-27 -193h127q533 0 533 -381q0 -131 -42.5 -242t-124 -194.5t-211 -130.5t-294.5 -47h-68l35 252h57q135 0 213 76.5t78 208.5q0 100 -54 148t-171 48h-115l-133 -948h-344z" />
<glyph unicode="&#xdf;" horiz-adv-x="1288" d="M-25 -397l218 1548q19 139 101 238.5t206.5 148.5t279.5 49q224 0 342.5 -86.5t118.5 -245.5q0 -94 -29 -171.5t-79 -130.5t-110 -87t-130 -51v-4q63 -9 116.5 -32t97 -61t68.5 -96.5t25 -132.5q0 -156 -71 -276t-193.5 -183t-276.5 -63q-64 0 -124 16t-80 35l41 279 q51 -66 145 -66q89 0 152 60.5t63 167.5q0 184 -289 184l39 270q125 2 203 71t78 183q0 77 -40.5 116.5t-111.5 39.5q-88 0 -143 -47t-68 -143l-213 -1530h-336z" />
<glyph unicode="&#xe0;" d="M51 453q0 165 43.5 301.5t119 227t178.5 140t222 49.5q95 0 162.5 -33t102.5 -91l36 92h265l-115 -826q-8 -65 45 -65q52 0 102 65l-38 -272q-28 -26 -79.5 -46t-121.5 -20q-95 0 -154 41t-78 115q-28 -69 -108.5 -116.5t-190.5 -47.5q-184 0 -287.5 125t-103.5 361z M399 469q0 -233 158 -233q66 0 112.5 35.5t67.5 93.5l68 464q-16 35 -52.5 57.5t-88.5 22.5q-70 0 -122.5 -35t-83 -97t-45 -139t-14.5 -169zM408 1550h313l199 -284h-281z" />
<glyph unicode="&#xe1;" d="M51 453q0 165 43.5 301.5t119 227t178.5 140t222 49.5q95 0 162.5 -33t102.5 -91l36 92h265l-115 -826q-8 -65 45 -65q52 0 102 65l-38 -272q-28 -26 -79.5 -46t-121.5 -20q-95 0 -154 41t-78 115q-28 -69 -108.5 -116.5t-190.5 -47.5q-184 0 -287.5 125t-103.5 361z M399 469q0 -233 158 -233q66 0 112.5 35.5t67.5 93.5l68 464q-16 35 -52.5 57.5t-88.5 22.5q-70 0 -122.5 -35t-83 -97t-45 -139t-14.5 -169zM588 1266l278 284h312l-316 -284h-274z" />
<glyph unicode="&#xe2;" d="M51 453q0 165 43.5 301.5t119 227t178.5 140t222 49.5q95 0 162.5 -33t102.5 -91l36 92h265l-115 -826q-8 -65 45 -65q52 0 102 65l-38 -272q-28 -26 -79.5 -46t-121.5 -20q-95 0 -154 41t-78 115q-28 -69 -108.5 -116.5t-190.5 -47.5q-184 0 -287.5 125t-103.5 361z M385 1272l301 278h217l223 -278h-256l-98 106l-131 -106h-256zM399 469q0 -233 158 -233q66 0 112.5 35.5t67.5 93.5l68 464q-16 35 -52.5 57.5t-88.5 22.5q-70 0 -122.5 -35t-83 -97t-45 -139t-14.5 -169z" />
<glyph unicode="&#xe3;" d="M51 453q0 165 43.5 301.5t119 227t178.5 140t222 49.5q95 0 162.5 -33t102.5 -91l36 92h265l-115 -826q-8 -65 45 -65q52 0 102 65l-38 -272q-28 -26 -79.5 -46t-121.5 -20q-95 0 -154 41t-78 115q-28 -69 -108.5 -116.5t-190.5 -47.5q-184 0 -287.5 125t-103.5 361z M379 1292q17 124 91 191t183 67q39 0 75 -10t55 -20.5t46 -28.5q53 -37 89 -37q31 0 47.5 20t23.5 72h187q-17 -125 -92 -191.5t-183 -66.5q-95 0 -174 55q-62 43 -90 43q-31 0 -48 -21t-24 -73h-186zM399 469q0 -233 158 -233q66 0 112.5 35.5t67.5 93.5l68 464 q-16 35 -52.5 57.5t-88.5 22.5q-70 0 -122.5 -35t-83 -97t-45 -139t-14.5 -169z" />
<glyph unicode="&#xe4;" d="M51 453q0 165 43.5 301.5t119 227t178.5 140t222 49.5q95 0 162.5 -33t102.5 -91l36 92h265l-115 -826q-8 -65 45 -65q52 0 102 65l-38 -272q-28 -26 -79.5 -46t-121.5 -20q-95 0 -154 41t-78 115q-28 -69 -108.5 -116.5t-190.5 -47.5q-184 0 -287.5 125t-103.5 361z M397 1382q0 72 50 117t124 45q63 0 98.5 -30t35.5 -84q0 -74 -48.5 -118t-124.5 -44q-63 0 -99 30t-36 84zM399 469q0 -233 158 -233q66 0 112.5 35.5t67.5 93.5l68 464q-16 35 -52.5 57.5t-88.5 22.5q-70 0 -122.5 -35t-83 -97t-45 -139t-14.5 -169zM844 1380 q0 73 49 118.5t121 45.5q62 0 97.5 -30t35.5 -84q0 -74 -48 -118t-124 -44q-61 0 -96 29.5t-35 82.5z" />
<glyph unicode="&#xe5;" d="M51 453q0 165 43.5 301.5t119 227t178.5 140t222 49.5q95 0 162.5 -33t102.5 -91l36 92h265l-115 -826q-8 -65 45 -65q52 0 102 65l-38 -272q-28 -26 -79.5 -46t-121.5 -20q-95 0 -154 41t-78 115q-28 -69 -108.5 -116.5t-190.5 -47.5q-184 0 -287.5 125t-103.5 361z M399 469q0 -233 158 -233q66 0 112.5 35.5t67.5 93.5l68 464q-16 35 -52.5 57.5t-88.5 22.5q-70 0 -122.5 -35t-83 -97t-45 -139t-14.5 -169zM508 1448q0 118 86.5 192t222.5 74q116 0 180 -52t64 -142q0 -120 -86 -193.5t-223 -73.5q-116 0 -180 52t-64 143zM686 1468 q0 -67 86 -67q59 0 85 28.5t26 73.5q0 64 -86 64q-56 0 -83.5 -28.5t-27.5 -70.5z" />
<glyph unicode="&#xe6;" horiz-adv-x="1730" d="M37 283q0 77 26.5 138t71 102t113 72.5t141 49.5t166.5 33l150 22q13 110 -33 156.5t-148 46.5q-113 0 -216 -54t-161 -140l43 311q55 62 158 106.5t260 44.5q238 0 310 -153q61 74 159.5 113.5t190.5 39.5q196 0 304.5 -90.5t108.5 -265.5q0 -182 -139 -295.5 t-381 -113.5q-107 0 -166 18v-4q0 -72 66 -129.5t182 -57.5q120 0 211.5 44t144.5 110l-43 -289q-41 -55 -140 -93t-232 -38q-268 0 -391 170q-57 -76 -160.5 -123t-233.5 -47q-160 0 -261 85t-101 231zM354 309q0 -53 34 -79.5t95 -26.5t126.5 31t95.5 67q-25 94 -25 168 v23l-115 -25q-118 -24 -164.5 -57.5t-46.5 -100.5zM1008 639q37 -12 102 -12q126 0 190 42.5t64 121.5q0 118 -131 118q-89 0 -152.5 -71t-72.5 -199z" />
<glyph unicode="&#xe7;" horiz-adv-x="1026" d="M55 473q0 143 36 261t98 198t146 134.5t178.5 79.5t197.5 25q203 0 297 -94l-43 -313q-53 63 -112 93t-142 30q-145 0 -225 -103t-80 -284q0 -123 50 -184.5t165 -61.5q160 0 294 125l-45 -307q-50 -42 -136 -72t-187 -33l-41 -90q20 10 61 10q94 0 144.5 -40t50.5 -115 q0 -136 -102 -212.5t-259 -76.5q-127 0 -200 47l24 178q65 -65 199 -65q133 0 133 96q0 55 -92 55q-41 0 -91 -11.5t-81 -25.5l110 263q-167 33 -257.5 158.5t-90.5 334.5z" />
<glyph unicode="&#xe8;" horiz-adv-x="1142" d="M53 489q0 157 51.5 288t138.5 216t197.5 131.5t231.5 46.5q200 0 311 -91t111 -265q0 -182 -139.5 -295.5t-381.5 -113.5q-106 0 -165 18v-2q0 -76 65.5 -132.5t181.5 -56.5q120 0 212 44t145 110l-43 -289q-41 -55 -140.5 -93t-232.5 -38q-252 0 -397.5 135t-145.5 387z M336 1550h313l199 -284h-281zM420 639q37 -12 102 -12q127 0 190.5 42.5t63.5 121.5q0 118 -131 118q-89 0 -152.5 -71t-72.5 -199z" />
<glyph unicode="&#xe9;" horiz-adv-x="1142" d="M53 489q0 157 51.5 288t138.5 216t197.5 131.5t231.5 46.5q200 0 311 -91t111 -265q0 -182 -139.5 -295.5t-381.5 -113.5q-106 0 -165 18v-2q0 -76 65.5 -132.5t181.5 -56.5q120 0 212 44t145 110l-43 -289q-41 -55 -140.5 -93t-232.5 -38q-252 0 -397.5 135t-145.5 387z M420 639q37 -12 102 -12q127 0 190.5 42.5t63.5 121.5q0 118 -131 118q-89 0 -152.5 -71t-72.5 -199zM516 1266l279 284h311l-315 -284h-275z" />
<glyph unicode="&#xea;" horiz-adv-x="1142" d="M53 489q0 157 51.5 288t138.5 216t197.5 131.5t231.5 46.5q200 0 311 -91t111 -265q0 -182 -139.5 -295.5t-381.5 -113.5q-106 0 -165 18v-2q0 -76 65.5 -132.5t181.5 -56.5q120 0 212 44t145 110l-43 -289q-41 -55 -140.5 -93t-232.5 -38q-252 0 -397.5 135t-145.5 387z M313 1272l301 278h217l224 -278h-256l-99 106l-131 -106h-256zM420 639q37 -12 102 -12q127 0 190.5 42.5t63.5 121.5q0 118 -131 118q-89 0 -152.5 -71t-72.5 -199z" />
<glyph unicode="&#xeb;" horiz-adv-x="1142" d="M53 489q0 157 51.5 288t138.5 216t197.5 131.5t231.5 46.5q200 0 311 -91t111 -265q0 -182 -139.5 -295.5t-381.5 -113.5q-106 0 -165 18v-2q0 -76 65.5 -132.5t181.5 -56.5q120 0 212 44t145 110l-43 -289q-41 -55 -140.5 -93t-232.5 -38q-252 0 -397.5 135t-145.5 387z M324 1382q0 72 50 117t124 45q63 0 98 -30t35 -84q0 -74 -48 -118t-124 -44q-63 0 -99 30t-36 84zM420 639q37 -12 102 -12q127 0 190.5 42.5t63.5 121.5q0 118 -131 118q-89 0 -152.5 -71t-72.5 -199zM770 1380q0 73 49 118.5t121 45.5q62 0 97.5 -30t35.5 -84 q0 -74 -48 -118t-124 -44q-61 0 -96 29.5t-35 82.5z" />
<glyph unicode="&#xec;" horiz-adv-x="669" d="M70 1550h313l199 -284h-281zM98 874l41 265h430l-129 -826q-5 -33 5 -49t38 -16q55 0 105 65l-39 -272q-71 -66 -207 -66q-132 0 -199 80t-39 244l97 575h-103z" />
<glyph unicode="&#xed;" horiz-adv-x="669" d="M98 874l41 265h430l-129 -826q-5 -33 5 -49t38 -16q55 0 105 65l-39 -272q-71 -66 -207 -66q-132 0 -199 80t-39 244l97 575h-103zM250 1266l278 284h312l-316 -284h-274z" />
<glyph unicode="&#xee;" horiz-adv-x="669" d="M47 1272l301 278h217l223 -278h-256l-98 106l-131 -106h-256zM98 874l41 265h430l-129 -826q-5 -33 5 -49t38 -16q55 0 105 65l-39 -272q-71 -66 -207 -66q-132 0 -199 80t-39 244l97 575h-103z" />
<glyph unicode="&#xef;" horiz-adv-x="669" d="M59 1382q0 72 50 117t124 45q63 0 98.5 -30t35.5 -84q0 -74 -48 -118t-124 -44q-63 0 -99.5 30t-36.5 84zM98 874l41 265h430l-129 -826q-5 -33 5 -49t38 -16q55 0 105 65l-39 -272q-71 -66 -207 -66q-132 0 -199 80t-39 244l97 575h-103zM506 1380q0 73 49 118.5 t121 45.5q62 0 97.5 -30t35.5 -84q0 -74 -48 -118t-124 -44q-61 0 -96 29.5t-35 82.5z" />
<glyph unicode="&#xf0;" horiz-adv-x="1243" d="M45 418q0 131 35.5 242t93 185t132 126.5t151.5 76t153 23.5q66 0 122 -19.5t83 -54.5l4 2q-50 172 -155 258l-140 -92h-217l268 170q-147 113 -327 189l2 18h387q78 -32 151 -78l119 78h217l-237 -149q141 -119 215 -293t74 -391q0 -144 -36 -266t-98.5 -208.5 t-146.5 -147.5t-180 -90.5t-199 -29.5q-215 0 -343 115.5t-128 335.5zM391 465q0 -100 45.5 -161.5t130.5 -61.5q117 0 186.5 103.5t69.5 254.5q0 99 -44 160t-130 61q-115 0 -186.5 -105t-71.5 -251z" />
<glyph unicode="&#xf1;" d="M31 0l159 1139h297l7 -133q47 74 130 119.5t191 45.5q214 0 293 -128t35 -367l-66 -363q-11 -65 37 -65q57 0 103 65l-37 -272q-71 -66 -199 -66q-131 0 -199 80t-39 244l58 319q29 160 2 223.5t-121 63.5q-71 0 -127 -45.5t-84 -109.5l-104 -750h-336zM340 1292 q17 124 91 191t183 67q39 0 75 -10t55.5 -20.5t46.5 -28.5q53 -37 88 -37q31 0 47.5 20t23.5 72h187q-17 -125 -92 -191.5t-183 -66.5q-95 0 -174 55q-62 43 -90 43q-31 0 -48 -21t-24 -73h-186z" />
<glyph unicode="&#xf2;" horiz-adv-x="1247" d="M49 446q0 182 56 324.5t150.5 228t210.5 129t245 43.5q216 0 342.5 -120.5t126.5 -358.5q0 -148 -36.5 -270t-99 -205t-147.5 -140.5t-179 -83.5t-196 -26q-218 0 -345.5 120t-127.5 359zM383 1550h313l199 -284h-281zM393 469q0 -227 174 -227q122 0 195.5 117t73.5 307 q0 112 -40.5 171.5t-133.5 59.5q-122 0 -195.5 -119.5t-73.5 -308.5z" />
<glyph unicode="&#xf3;" horiz-adv-x="1247" d="M49 446q0 182 56 324.5t150.5 228t210.5 129t245 43.5q216 0 342.5 -120.5t126.5 -358.5q0 -148 -36.5 -270t-99 -205t-147.5 -140.5t-179 -83.5t-196 -26q-218 0 -345.5 120t-127.5 359zM393 469q0 -227 174 -227q122 0 195.5 117t73.5 307q0 112 -40.5 171.5 t-133.5 59.5q-122 0 -195.5 -119.5t-73.5 -308.5zM563 1266l279 284h311l-315 -284h-275z" />
<glyph unicode="&#xf4;" horiz-adv-x="1247" d="M49 446q0 182 56 324.5t150.5 228t210.5 129t245 43.5q216 0 342.5 -120.5t126.5 -358.5q0 -148 -36.5 -270t-99 -205t-147.5 -140.5t-179 -83.5t-196 -26q-218 0 -345.5 120t-127.5 359zM360 1272l302 278h217l223 -278h-256l-98 106l-132 -106h-256zM393 469 q0 -227 174 -227q122 0 195.5 117t73.5 307q0 112 -40.5 171.5t-133.5 59.5q-122 0 -195.5 -119.5t-73.5 -308.5z" />
<glyph unicode="&#xf5;" horiz-adv-x="1247" d="M49 446q0 182 56 324.5t150.5 228t210.5 129t245 43.5q216 0 342.5 -120.5t126.5 -358.5q0 -148 -36.5 -270t-99 -205t-147.5 -140.5t-179 -83.5t-196 -26q-218 0 -345.5 120t-127.5 359zM354 1292q17 124 91.5 191t183.5 67q39 0 75 -10t55 -20.5t46 -28.5 q53 -37 88 -37q32 0 48.5 20.5t23.5 71.5h186q-17 -125 -91.5 -191.5t-182.5 -66.5q-96 0 -175 55q-62 43 -90 43q-31 0 -47.5 -21t-23.5 -73h-187zM393 469q0 -227 174 -227q122 0 195.5 117t73.5 307q0 112 -40.5 171.5t-133.5 59.5q-122 0 -195.5 -119.5t-73.5 -308.5z " />
<glyph unicode="&#xf6;" horiz-adv-x="1247" d="M49 446q0 182 56 324.5t150.5 228t210.5 129t245 43.5q216 0 342.5 -120.5t126.5 -358.5q0 -148 -36.5 -270t-99 -205t-147.5 -140.5t-179 -83.5t-196 -26q-218 0 -345.5 120t-127.5 359zM373 1382q0 72 50 117t124 45q63 0 98 -30t35 -84q0 -74 -48 -118t-124 -44 q-63 0 -99 30t-36 84zM393 469q0 -227 174 -227q122 0 195.5 117t73.5 307q0 112 -40.5 171.5t-133.5 59.5q-122 0 -195.5 -119.5t-73.5 -308.5zM819 1380q0 73 49 118.5t121 45.5q62 0 97.5 -30t35.5 -84q0 -74 -48 -118t-124 -44q-61 0 -96 29.5t-35 82.5z" />
<glyph unicode="&#xf7;" horiz-adv-x="1136" d="M66 606l38 283h1000l-41 -283h-997zM348 303q0 89 61.5 151t149.5 62q73 0 116.5 -43t43.5 -113q0 -90 -60.5 -150t-150.5 -60q-74 0 -117 41.5t-43 111.5zM467 1128q0 91 60 153t149 62q73 0 117.5 -43t44.5 -112q0 -89 -62.5 -149t-150.5 -60q-73 0 -115.5 40.5 t-42.5 108.5z" />
<glyph unicode="&#xf8;" horiz-adv-x="1259" d="M-59 0l176 168q-64 112 -64 278q0 182 56 324.5t150.5 228t210.5 129t245 43.5q216 0 340 -118l90 86h186l-201 -191q54 -115 54 -256q0 -148 -36.5 -270t-99 -205t-147.5 -140.5t-179 -83.5t-196 -26q-203 0 -325 101l-72 -68h-188zM397 432l412 389q-44 76 -143 76 q-122 0 -195.5 -119.5t-73.5 -308.5v-37zM442 295q41 -53 129 -53q122 0 195.5 117t73.5 307v6z" />
<glyph unicode="&#xf9;" horiz-adv-x="1337" d="M92 874l41 265h442l-100 -647q-22 -142 4 -200.5t117 -58.5q71 0 123.5 46.5t77.5 109.5l106 750h334l-115 -826q-8 -65 45 -65t103 65l-39 -272q-28 -26 -79.5 -46t-121.5 -20q-200 0 -237 166q-36 -74 -123 -124t-193 -50q-203 0 -291.5 117.5t-52.5 347.5l72 442h-113 zM401 1550h314l198 -284h-280z" />
<glyph unicode="&#xfa;" horiz-adv-x="1337" d="M92 874l41 265h442l-100 -647q-22 -142 4 -200.5t117 -58.5q71 0 123.5 46.5t77.5 109.5l106 750h334l-115 -826q-8 -65 45 -65t103 65l-39 -272q-28 -26 -79.5 -46t-121.5 -20q-200 0 -237 166q-36 -74 -123 -124t-193 -50q-203 0 -291.5 117.5t-52.5 347.5l72 442h-113 zM582 1266l278 284h311l-315 -284h-274z" />
<glyph unicode="&#xfb;" horiz-adv-x="1337" d="M92 874l41 265h442l-100 -647q-22 -142 4 -200.5t117 -58.5q71 0 123.5 46.5t77.5 109.5l106 750h334l-115 -826q-8 -65 45 -65t103 65l-39 -272q-28 -26 -79.5 -46t-121.5 -20q-200 0 -237 166q-36 -74 -123 -124t-193 -50q-203 0 -291.5 117.5t-52.5 347.5l72 442h-113 zM379 1272l301 278h217l223 -278h-256l-98 106l-131 -106h-256z" />
<glyph unicode="&#xfc;" horiz-adv-x="1337" d="M92 874l41 265h442l-100 -647q-22 -142 4 -200.5t117 -58.5q71 0 123.5 46.5t77.5 109.5l106 750h334l-115 -826q-8 -65 45 -65t103 65l-39 -272q-28 -26 -79.5 -46t-121.5 -20q-200 0 -237 166q-36 -74 -123 -124t-193 -50q-203 0 -291.5 117.5t-52.5 347.5l72 442h-113 zM391 1382q0 72 50 117t124 45q63 0 98 -30t35 -84q0 -74 -48 -118t-124 -44q-63 0 -99 30t-36 84zM838 1380q0 73 49 118.5t121 45.5q62 0 97.5 -30t35.5 -84q0 -74 -48 -118t-124 -44q-61 0 -96 29.5t-35 82.5z" />
<glyph unicode="&#xfd;" horiz-adv-x="1284" d="M33 -305l55 309q45 -70 141.5 -118t212.5 -48q146 0 220.5 61t91.5 193l14 101q-32 -64 -111 -104t-170 -40q-204 0 -291 116.5t-51 348.5l60 360h-117l41 265h444l-86 -566q-22 -142 3.5 -200t117.5 -58q68 0 120 44.5t77 105.5l96 674h334l-145 -1045 q-37 -265 -200.5 -394.5t-469.5 -129.5q-130 0 -235.5 36t-151.5 89zM569 1266l279 284h311l-315 -284h-275z" />
<glyph unicode="&#xfe;" horiz-adv-x="1257" d="M-25 -397l275 1951h336l-66 -497q41 47 112 80.5t169 33.5q391 0 391 -471q0 -169 -44.5 -308.5t-122.5 -231.5t-183 -142.5t-226 -50.5q-79 0 -142.5 27.5t-96.5 77.5l-66 -469h-336zM414 330q49 -103 166 -103q68 0 119.5 34.5t82.5 95t46.5 137.5t15.5 168 q0 122 -36 180.5t-134 58.5q-67 0 -120 -42.5t-81 -108.5z" />
<glyph unicode="&#xff;" horiz-adv-x="1284" d="M33 -305l55 309q45 -70 141.5 -118t212.5 -48q146 0 220.5 61t91.5 193l14 101q-32 -64 -111 -104t-170 -40q-204 0 -291 116.5t-51 348.5l60 360h-117l41 265h444l-86 -566q-22 -142 3.5 -200t117.5 -58q68 0 120 44.5t77 105.5l96 674h334l-145 -1045 q-37 -265 -200.5 -394.5t-469.5 -129.5q-130 0 -235.5 36t-151.5 89zM379 1382q0 72 50 117t124 45q63 0 98 -30t35 -84q0 -74 -48 -118t-124 -44q-63 0 -99 30t-36 84zM825 1380q0 73 49 118.5t121 45.5q62 0 97.5 -30t35.5 -84q0 -74 -48 -118t-124 -44q-61 0 -96 29.5 t-35 82.5z" />
<glyph unicode="&#x152;" horiz-adv-x="2183" d="M68 547q0 143 33 269.5t90 222.5t133 172.5t164.5 125t181.5 74t186 25.5q275 0 385 -150l16 117h955l-41 -283h-608l-39 -266h397l-35 -268h-399l-43 -303h608l-37 -283h-954l18 141q-162 -174 -436 -174q-261 0 -418 150t-157 430zM426 604q0 -167 79.5 -256.5 t227.5 -89.5q189 0 310.5 148.5t121.5 396.5q0 165 -79 253.5t-228 88.5q-190 0 -311 -146t-121 -395z" />
<glyph unicode="&#x153;" horiz-adv-x="1906" d="M49 446q0 146 37 268t99 205.5t145 141t175 84t189 26.5q257 0 359 -184q67 94 168.5 139t212.5 45q192 0 301.5 -91t109.5 -265q0 -182 -139 -295.5t-381 -113.5q-109 0 -168 18v-2q0 -77 67 -133t189 -56q225 0 379 168l-41 -288q-52 -57 -155 -101.5t-242 -44.5 q-147 0 -253 45.5t-173 155.5q-132 -201 -412 -201q-213 0 -340 120t-127 359zM395 469q0 -227 172 -227q122 0 195.5 117t73.5 307q0 112 -40.5 171.5t-133.5 59.5q-122 0 -194.5 -119t-72.5 -309zM1171 639q37 -12 101 -12q127 0 191.5 42.5t64.5 121.5q0 118 -133 118 q-88 0 -152.5 -71t-71.5 -199z" />
<glyph unicode="&#x178;" horiz-adv-x="1277" d="M106 1403h386l194 -533l354 533h346l-585 -834l-80 -569h-344l80 569zM403 1634q0 72 50.5 117t124.5 45q63 0 98 -30.5t35 -84.5q0 -74 -48 -117.5t-124 -43.5q-63 0 -99.5 30t-36.5 84zM850 1632q0 73 49 118.5t121 45.5q62 0 97.5 -30.5t35.5 -84.5q0 -74 -48 -117.5 t-124 -43.5q-61 0 -96 29.5t-35 82.5z" />
<glyph unicode="&#x2c6;" horiz-adv-x="1239" d="M338 1272l301 278h217l223 -278h-256l-98 106l-131 -106h-256z" />
<glyph unicode="&#x2dc;" horiz-adv-x="1251" d="M338 1292q17 124 91 191t183 67q39 0 75 -10t55 -20.5t46 -28.5q53 -37 89 -37q31 0 47.5 20t23.5 72h187q-17 -125 -92 -191.5t-183 -66.5q-95 0 -174 55q-62 43 -90 43q-31 0 -48 -21t-24 -73h-186z" />
<glyph unicode="&#x2000;" horiz-adv-x="983" />
<glyph unicode="&#x2001;" horiz-adv-x="1966" />
<glyph unicode="&#x2002;" horiz-adv-x="983" />
<glyph unicode="&#x2003;" horiz-adv-x="1966" />
<glyph unicode="&#x2004;" horiz-adv-x="655" />
<glyph unicode="&#x2005;" horiz-adv-x="491" />
<glyph unicode="&#x2006;" horiz-adv-x="327" />
<glyph unicode="&#x2007;" horiz-adv-x="327" />
<glyph unicode="&#x2008;" horiz-adv-x="245" />
<glyph unicode="&#x2009;" horiz-adv-x="393" />
<glyph unicode="&#x200a;" horiz-adv-x="109" />
<glyph unicode="&#x2010;" horiz-adv-x="776" d="M90 496l39 276h555l-37 -276h-557z" />
<glyph unicode="&#x2011;" horiz-adv-x="776" d="M90 496l39 276h555l-37 -276h-557z" />
<glyph unicode="&#x2012;" horiz-adv-x="776" d="M90 496l39 276h555l-37 -276h-557z" />
<glyph unicode="&#x2013;" horiz-adv-x="1445" d="M88 506l37 258h1231l-35 -258h-1233z" />
<glyph unicode="&#x2014;" horiz-adv-x="1929" d="M92 508l37 256h1708l-37 -256h-1708z" />
<glyph unicode="&#x2018;" horiz-adv-x="522" d="M150 1100q0 84 54.5 185t116 170t115.5 112l135 -23q-91 -140 -127 -266q70 -39 70 -127q0 -89 -62 -147t-151 -58q-70 0 -110.5 41.5t-40.5 112.5z" />
<glyph unicode="&#x2019;" horiz-adv-x="516" d="M139 969q91 140 127 266q-69 38 -69 127t62 147t151 58q70 0 110.5 -41.5t40.5 -112.5q0 -64 -31 -138.5t-78.5 -137.5t-93 -112t-84.5 -79z" />
<glyph unicode="&#x201a;" horiz-adv-x="528" d="M-45 -293q91 140 127 266q-70 39 -70 127q0 89 62 147t151 58q70 0 111 -41t41 -112q0 -64 -31 -138.5t-78.5 -137.5t-93 -112t-84.5 -79z" />
<glyph unicode="&#x201c;" horiz-adv-x="942" d="M150 1100q0 84 54.5 185t116 170t115.5 112l135 -23q-91 -140 -127 -266q70 -39 70 -127q0 -89 -62 -147t-151 -58q-70 0 -110.5 41.5t-40.5 112.5zM569 1100q0 64 31 138.5t78.5 137.5t93 112t84.5 79l135 -23q-91 -140 -127 -266q70 -39 70 -127q0 -89 -62 -147 t-151 -58q-70 0 -111 41.5t-41 112.5z" />
<glyph unicode="&#x201d;" horiz-adv-x="935" d="M139 969q91 140 127 266q-69 38 -69 127t62 147t151 58q70 0 110.5 -41.5t40.5 -112.5q0 -64 -31 -138.5t-78.5 -137.5t-93 -112t-84.5 -79zM559 969q91 140 127 266q-70 39 -70 127q0 89 62 147t151 58q70 0 111 -41.5t41 -112.5q0 -64 -31 -138.5t-78.5 -137.5 t-93 -112t-84.5 -79z" />
<glyph unicode="&#x201e;" horiz-adv-x="946" d="M-45 -293q91 140 127 266q-70 39 -70 127q0 89 62 147t151 58q70 0 111 -41t41 -112q0 -64 -31 -138.5t-78.5 -137.5t-93 -112t-84.5 -79zM373 -293q91 140 127 266q-70 39 -70 127q0 89 62 147t151 58q70 0 111 -41t41 -112q0 -64 -31 -138.5t-78.5 -137.5t-93 -112 t-84.5 -79z" />
<glyph unicode="&#x2022;" horiz-adv-x="700" d="M86 682q0 136 92 232t225 96q105 0 171.5 -67.5t66.5 -170.5q0 -135 -93.5 -229t-221.5 -94q-108 0 -174 65t-66 168z" />
<glyph unicode="&#x2026;" horiz-adv-x="1519" d="M14 131q0 92 64.5 157.5t154.5 65.5q73 0 118.5 -45.5t45.5 -115.5q0 -94 -64 -160t-155 -66q-75 0 -119.5 45.5t-44.5 118.5zM506 131q0 92 65.5 157.5t153.5 65.5q73 0 118.5 -45.5t45.5 -115.5q0 -93 -64.5 -159.5t-154.5 -66.5q-74 0 -119 46t-45 118zM995 131 q0 92 66 157.5t156 65.5q72 0 116.5 -45.5t44.5 -115.5q0 -94 -63 -160t-154 -66q-75 0 -120.5 46t-45.5 118z" />
<glyph unicode="&#x202f;" horiz-adv-x="393" />
<glyph unicode="&#x2039;" horiz-adv-x="780" d="M33 514q277 270 424 492h299q-186 -263 -412 -492q124 -181 270 -514h-299q-108 283 -282 514z" />
<glyph unicode="&#x203a;" horiz-adv-x="780" d="M-10 0q219 315 413 514q-168 241 -272 492h297q88 -227 287 -492q-251 -242 -426 -514h-299z" />
<glyph unicode="&#x205f;" horiz-adv-x="491" />
<glyph unicode="&#x20ac;" horiz-adv-x="1286" d="M45 494l21 145h122q1 18 6.5 50t6.5 38h-123l20 141h142q45 128 121 228t168.5 161t193 92t201.5 31q238 0 340 -110l-50 -365q-77 176 -319 176q-232 0 -320 -213h369l-18 -141h-389q-10 -72 -11 -88h387l-22 -145h-365q21 -228 254 -228q244 0 367 166l-49 -344 q-62 -54 -159 -87.5t-216 -33.5q-254 0 -396 128.5t-145 398.5h-137z" />
<glyph unicode="&#x2122;" horiz-adv-x="2021" d="M184 1198l29 205h760l-29 -205h-242l-81 -580h-275l82 580h-244zM950 618l111 785h227l201 -311l276 311h232l-111 -785h-264l61 424l-217 -235h-47l-147 235l-62 -424h-260z" />
</font>
</defs>
</svg>
